<svg version="1.1" xmlns="http://www.w3.org/2000/svg" viewBox="0 0 1574 805.5">
  <!-- svg-source:excalidraw -->
  
  <defs>
    <style>
      @font-face {
        font-family: "Virgil";
        src: url("https://excalidraw.com/FG_Virgil.woff2");
      }
      @font-face {
        font-family: "Cascadia";
        src: url("https://excalidraw.com/Cascadia.woff2");
      }
    </style>
  </defs>
  <rect x="0" y="0" width="1574" height="805.5" fill="#ffffff"></rect><g transform="translate(75 95.5) rotate(0 57.5 78.5)"><path d="M-1.4659152552485466 -1.195286102592945 C21.82121799327433 2.42678538095206, 45.86757517978549 1.4949180198833345, 115.74483651667833 -1.9965034201741219 M-0.38439229503273964 0.9995264746248722 C27.647034073248506 0.4243188479915261, 54.56221517175436 -0.3272557875141502, 115.29382976517081 -0.5434054397046566 M115.44153565913439 1.3678020760416985 C117.37069407690316 34.496154906973246, 115.62338129270822 69.69426329210401, 113.84974379092455 156.98253171890974 M115.8237303160131 0.28608426824212074 C113.5368578216061 53.9577145870775, 113.27252326216549 107.55473324209451, 114.46541902050376 156.24153873696923 M113.33764166384935 157.3007556721568 C78.63876990042627 157.1303023474291, 39.603907231241465 158.2259771006182, -1.8035200163722038 155.28528969734907 M115.90880223736167 157.79279968515038 C72.72446265630424 156.27591488119214, 32.123828977346406 156.74775180574505, 0.18229254707694054 156.44353995099664 M-1.3388765379786491 156.0906352326274 C0.8714064557477832 125.29116378463804, 2.704217572920024 91.68010023459792, 1.3565782979130745 -0.6089814379811287 M-0.3504900075495243 156.49684557691216 C-1.0193697785958646 110.59308170266449, -1.3832145309075712 65.46553624272346, 0.34423061832785606 0.35617730394005775" stroke="#000000" stroke-width="1" fill="none"></path></g><g transform="translate(102 139.5) rotate(0 38.5 13)"><text x="0" y="18" font-family="Virgil, Segoe UI Emoji" font-size="20px" fill="#000000" text-anchor="start" style="white-space: pre;" direction="ltr">Tobi NB</text></g><g transform="translate(64 587.5) rotate(0 60.5 88.5)"><path d="M-1.5169225260615349 0.6327444836497307 C27.1524411033839 0.8500775906816125, 54.224583358317616 0.9475986573472619, 122.77705068141222 0.013442449271678925 M-0.8573551513254642 0.6094903685152531 C42.33641479872168 1.159719628803432, 84.16247463524343 1.8839292950555682, 120.23360189422965 -0.8029636405408382 M119.88707990199327 -1.7660508826375008 C119.37174991790205 53.7129311632365, 119.07502917472273 110.32123907580971, 121.05331415683031 178.52766435593367 M120.69550928100944 -0.0714963935315609 C122.8180825568363 70.15473792664707, 121.67000471126288 139.08126292675735, 121.23284312710166 176.570588324219 M121.71235460788012 175.06927698105574 C84.35427220650017 177.47884779658168, 52.241253586858505 175.94570785250514, -1.527226261794567 176.26111691445112 M121.91682692989707 177.15273306146264 C76.96141616888343 177.393693340607, 30.869496466219417 176.62354112941773, -0.9155024625360966 176.78063092008233 M1.1163722947239876 177.40703862160444 C1.5738455545529724 107.39766986556351, 1.1092018377408386 42.698779319971806, 1.3257126286625862 1.474298171699047 M0.4759093187749386 177.61872658506036 C1.647011582441628 108.26877078451216, 1.070321981497109 37.438685742020596, 0.07897039875388145 -0.019881751388311386" stroke="#000000" stroke-width="1" fill="none"></path></g><g transform="translate(74 646.5) rotate(0 52.5 13)"><text x="0" y="18" font-family="Virgil, Segoe UI Emoji" font-size="20px" fill="#000000" text-anchor="start" style="white-space: pre;" direction="ltr">Michael NB</text></g><g><g transform="translate(198 650.5) rotate(0 11.502888422557149 -13.230551950633526)"><path d="M-0.1820041492581368 0.877711160480976 C0.2677701001365979 0.6971703603863715, 1.5803889438509942 -1.0119580353299775, 2.7954275771975516 -2.1154210969805716 C4.010466210544109 -3.2188841586311656, 4.840343253314495 -2.690819256007672, 7.108227650821209 -5.7430672094225885 C9.376112048327922 -8.795315162837506, 13.463693253695965 -16.829617508749166, 16.402733962237836 -20.428908817470074 C19.341774670779706 -24.02820012619098, 23.33323516895374 -26.07182610084613, 24.74247190207243 -27.33881506174803 M-1.736695056958124 0.29290557439439 C-1.383810615443314 -0.12555139754898842, 0.8214742704201492 -2.9221592156557987, 2.2649815915990623 -3.773591921674088 C3.7084889127779754 -4.625024627692377, 4.5791677456069735 -1.6637518057692802, 6.924348870115354 -4.815690661715344 C9.269529994623735 -7.967629517661408, 13.546583711104468 -19.054347942915435, 16.336068338649348 -22.685225057350472 C19.125552966194228 -26.31610217178551, 22.54044752905456 -25.533991674132025, 23.661256635384635 -26.600953348325564" stroke="#000000" stroke-width="1" fill="none"></path></g></g><g><g transform="translate(198 671.5) rotate(0 11.898544422412584 -2.15801769047971)"><path d="M0.6611849382519721 0.8581543609499931 C0.7275293106834093 0.2673559988538424, -0.7697725062568983 -2.32198286006848, 0.9691574171185493 -2.8023182705044745 C2.708087340493997 -3.2826536809404687, 7.1986949677268655 -1.6285461897651354, 11.094764478504658 -2.0238581016659736 C14.99083398928245 -2.419170013566812, 22.34687384714683 -4.952524375418822, 24.3455744817853 -5.174189741909504 M-0.4508316985052079 0.26308145510964076 C-0.5951778193594267 -0.2585182988860957, -1.800021940994387 -1.522447073382015, 0.004919597478583393 -1.6861101112980394 C1.8098611359515537 -1.8497731492140639, 6.250654110085839 -0.21878537974941237, 10.378817532332613 -0.7188967723865063 C14.506980954579387 -1.2190081650236002, 22.370934116117034 -4.369280914586659, 24.773900130959227 -4.686778467120603" stroke="#000000" stroke-width="1" fill="none"></path></g></g><g><g transform="translate(198 693.5) rotate(0 13.45063907737378 2.014119550704322)"><path d="M0.6461496993899345 -0.10786074846982951 C2.8508164251844086 0.02632674326499307, 8.489397081236044 -0.4468249882260958, 12.053810612857342 -0.10790676325559612 C15.61822414447864 0.23101146171490355, 19.6776600047946 1.0927581066886585, 22.03263088911772 1.9256486013531686 C24.38760177344084 2.758539096017679, 25.29323463489612 4.329061070581277, 26.183635918796064 4.889436204731465 C27.074037202696008 5.449811338881652, 27.040271362165612 5.105589762826761, 27.375038592517377 5.287899406254292 M-0.47376043776981525 -1.2100915867555888 C2.2028350302545974 -1.323587913659091, 10.12021167993235 -1.975331318822379, 14.269015720980242 -1.7621325627434998 C18.417819762028135 -1.5489338066646208, 22.89857579161413 -0.6912963276573767, 24.41906380851753 0.06910094971768554 C25.93955182542093 0.8294982270927478, 23.111634317434703 1.840136890563493, 23.391943822400645 2.800251101506874 C23.672253327366587 3.7603653124502547, 25.57117772370266 5.386567517969136, 26.100920838313176 5.829786215377972" stroke="#000000" stroke-width="1" fill="none"></path></g></g><g><g transform="translate(198 136.5) rotate(0 14.226132725079097 -2.3339172153407617)"><path d="M0.12859279364347453 0.9027419641613961 C0.3614104593793551 0.7109513675173124, -3.9187573586901028 -0.7697946632901828, 0.45735203474760056 -1.5599306985735892 C4.833461428185304 -2.3500667338569956, 21.2418083195885 -3.57060514340798, 26.385249154269694 -3.8380742475390432 C31.528689988950887 -4.105543351670106, 30.185789220035076 -3.3018930201729138, 31.317997042834758 -3.1647453233599663 M-1.2630347190331668 0.3310775500070302 C-1.1535090675981094 0.330464638325696, -5.289723840955024 0.6671399267048885, -0.7755836106371135 -0.31646906410343956 C3.7385566196807973 -1.3000780549117676, 20.491401971674833 -5.265425284054752, 25.821806662874295 -5.570576394842938 C31.152211354073756 -5.875727505631124, 30.122780059771614 -2.6370680978366483, 31.206844536559657 -2.1473757288325577" stroke="#000000" stroke-width="1" fill="none"></path></g></g><g><g transform="translate(198 151.5) rotate(0 14.417494020515761 10.860292103691023)"><path d="M0.6602867290377616 0.7006973817944526 C5.211367130776247 2.1027697001894317, 21.797102022667726 5.378402860462666, 26.1633166000247 7.455599792301655 C30.529531177381674 9.532796724140644, 26.551144059995814 11.008253391087056, 26.85757419317961 13.163878972828389 C27.164004326363404 15.319504554569722, 27.799441163241863 19.091057514647645, 28.001897399127483 20.389353282749653 M-0.45220146755687884 0.022959561897441638 C4.055174856282149 1.6654875956506776, 20.366961715615666 6.805641150427982, 25.301012351410463 8.707214934481307 C30.23506298720526 10.608788718534633, 28.66063897579598 9.267333981050179, 29.152102347211912 11.432402266217396 C29.643565718627844 13.597470551384614, 28.668599273161963 20.5721814677647, 28.24979257990606 21.697624645484613" stroke="#000000" stroke-width="1" fill="none"></path></g></g><g><g transform="translate(198 172.5) rotate(0 13.415363473808767 8.78799137546207)"><path d="M-1.0256819173693656 -1.091833336651325 C-0.921218038101991 -1.6159172212084134, -0.00046870758136119406 -2.258316993216673, 1.1130065038800239 -2.2630512073636053 C2.226481715341409 -2.2677854215105375, 3.0137537712852156 -4.225039624671141, 5.6551693513989445 -1.120238621532917 C8.296584931512673 1.9845623816053075, 13.37894416600466 12.847170544167362, 16.961499984562398 16.36575481146574 C20.544055803120138 19.88433907876412, 25.502670835951964 19.123922237257162, 27.15050426274538 19.991266982257365 C28.798337689538794 20.858611727257568, 27.08364797383547 21.57134501188993, 26.848500545322896 21.56982328146696 C26.613353116810323 21.568301551043987, 25.99506893903017 20.306089258690676, 25.73961969166994 19.982136599719524 M0.636696346672252 0.9493502162676304 C0.5504824737428379 0.5294900405189642, -0.5418336480141926 -0.20535662643300978, 0.2242894547898322 -0.863727840008214 C0.990412557593857 -1.5220990535834182, 2.4936187855123233 -6.0009378679810705, 5.233434963496402 -3.000877065183595 C7.97325114148048 -0.0008162623861189822, 13.154841352375223 13.240253837782268, 16.663186522694303 17.136636976776643 C20.171531693013385 21.03302011577102, 24.886336921226853 19.8495245414755, 26.283505985410883 20.37742176878266 C27.680675049594914 20.90531899608982, 25.052474897177888 20.595761673925445, 25.046200907798482 20.30402034061961 C25.039926918419077 20.012279007313772, 25.821762055130677 18.82949654616726, 26.24586204913445 18.626973768947646" stroke="#000000" stroke-width="1" fill="none"></path></g></g><g transform="translate(380 299.5) rotate(0 64 112)"><path d="M-0.28864581137895584 -1.221961073577404 C36.926474408805376 1.5430856421589851, 75.32121346443893 1.2901194766163826, 127.9725224301219 1.6302244141697884 M0.5023201443254948 -0.504313264042139 C42.29568831697107 0.18715498432517053, 83.28373193517328 -0.6309324742853641, 127.3815035559237 0.5581479929387569 M127.42187060190487 0.8882261500791996 C130.52067072695777 75.88331735575937, 130.51517440689238 150.7450419655869, 127.131811829111 223.78582861741194 M128.43436365260254 -0.6401708222183212 C130.33581318546825 49.02821074591289, 130.66253811506652 97.23790870408467, 128.01110220785247 223.2928960471251 M126.68824618309736 224.33150429278612 C93.20829260796307 224.0271710589528, 64.18286021202802 224.1546217635274, -1.9733303263783455 225.37181539088488 M128.74205789342523 223.87657352909446 C96.71612913385033 223.07908447727561, 64.40758089795708 224.280871591419, 0.602755282074213 223.60022100433707 M-1.0424869429977386 224.1641073561543 C0.5918456706714894 149.41945666732303, -0.22642120879943106 77.83225537853758, 0.27369277474184334 -1.1674416364800004 M0.5366105422886595 224.40699081588335 C1.6613511511579504 174.61490595947384, 0.1528895230078211 126.25709102171822, 0.21775518991834966 0.6976549486575617" stroke="#000000" stroke-width="1" fill="none"></path></g><g transform="translate(404 394.5) rotate(0 42 13)"><text x="0" y="18" font-family="Virgil, Segoe UI Emoji" font-size="20px" fill="#000000" text-anchor="start" style="white-space: pre;" direction="ltr">ROUTER</text></g><g><g transform="translate(213 219.5) rotate(0 70.31631455297118 47.614015178782864)"><path d="M0.7487843200564384 0.567913444340229 C24.342242956658204 16.109760848184425, 117.93384078393379 78.52848126838605, 140.94987174719571 94.25910888463258 M-0.31724264125339685 -0.1795359427202492 C23.254760490752137 16.023649096343046, 116.92548832654643 79.33701072251114, 140.50050895084627 95.40756630028598" stroke="#000000" stroke-width="1" fill="none"></path></g><g transform="translate(213 219.5) rotate(0 70.31631455297118 47.614015178782864)"><path d="M112.3584945650846 89.65195116221444 C117.48456091585332 87.79030292965517, 125.8846050938511 92.049807225659, 142.12301740963943 95.51338070507161 M112.13596638683977 87.9942591060652 C120.08597833618651 89.91688818407938, 127.82885995769271 91.6245235462103, 139.6419441903103 95.62801046918146" stroke="#000000" stroke-width="1" fill="none"></path></g><g transform="translate(213 219.5) rotate(0 70.31631455297118 47.614015178782864)"><path d="M123.88116713603512 72.6711378952209 C126.27965492965193 75.11119691079492, 131.8094782575775 83.6005084837131, 142.12301740963943 95.51338070507161 M123.65863895779029 71.01344583907165 C128.22629868029856 77.78512362905842, 132.64654080554237 84.38928976494495, 139.6419441903103 95.62801046918146" stroke="#000000" stroke-width="1" fill="none"></path></g></g><g><g transform="translate(196 613.5) rotate(0 84.79562366192229 -46.42032956185284)"><path d="M0.6816635772585868 0.5825378492474556 C28.841402324537437 -14.535058920085431, 139.93150682499012 -76.36738423556089, 167.88452102392912 -91.88565391749144 M-0.41960177402012055 -0.15723372523672885 C28.188478526767966 -15.479701050268487, 142.0544290391573 -77.67918417100793, 170.0108490978647 -93.42319697295315" stroke="#000000" stroke-width="1" fill="none"></path></g><g transform="translate(196 613.5) rotate(0 84.79562366192229 -46.42032956185284)"><path d="M151.28017118982166 -72.65827128949051 C156.53632872224125 -76.67400475026858, 159.61461160779092 -81.25341334592542, 170.30024865468033 -91.8171899259556 M150.59067733622283 -71.21607835876232 C155.92777848624317 -76.39563080177005, 160.75988581102246 -83.30409173828022, 169.53540678148158 -93.49925110270269" stroke="#000000" stroke-width="1" fill="none"></path></g><g transform="translate(196 613.5) rotate(0 84.79562366192229 -46.42032956185284)"><path d="M141.3470002622333 -90.61522308285326 C148.5175759038053 -90.9073113719362, 153.68686456007038 -91.7066491223311, 170.30024865468033 -91.8171899259556 M140.65750640863448 -89.17303015212507 C148.61369163329496 -89.3924378070824, 156.21028268311443 -91.30333035924029, 169.53540678148158 -93.49925110270269" stroke="#000000" stroke-width="1" fill="none"></path></g></g><g><g transform="translate(512 395.5) rotate(0 23.58532758770977 -0.4102991068149322)"><path d="M-0.2021587774157524 -0.006344635784625963 C7.866333015263081 -0.23902023583650586, 40.82197614461184 -0.7895234420895576, 48.93808604031801 -0.8487478092312812 M-1.767430864898488 -1.0552795149106533 C6.178997830124572 -1.2057420567888768, 40.18989475158043 -0.06044646096415823, 48.48253574785777 0.24308484214358028" stroke="#000000" stroke-width="1" fill="none"></path></g></g><g><g transform="translate(514 402.5) rotate(0 21.135970483468867 0.6812075246404561)"><path d="M0.6286111995577812 0.4912138536572457 C7.33953657199939 0.5365336492657662, 33.518742736677325 0.06397548466920848, 40.38392988890409 0.07966728955507274 M-0.5005066500138491 -0.29650281851179905 C6.598133254147445 -0.0230223820079119, 35.77496380448031 1.8511394023429601, 42.77244761695154 1.6589178677927703" stroke="#000000" stroke-width="1" fill="none"></path></g></g><g transform="translate(558 376.5) rotate(0 45.5 30.5)"><path d="M-0.3299606516957283 0.46938199549913406 C23.708703201636673 -0.7670042846724391, 45.026839406043294 -0.3184857700392604, 90.12326233834028 -1.0036659762263298 M-0.5991022847592831 0.733612384647131 C27.683879485353827 0.13825601514428854, 55.85184431821108 0.6751757281646132, 91.5423911549151 -0.2365610934793949 M90.0404242798686 0.3204135373234749 C89.64053139876575 24.223573831096296, 92.80435953330249 49.5241416566074, 90.26848094910383 61.84389419108629 M91.66088232770562 -0.5491593219339848 C90.52164973352104 17.665221095457674, 91.26598955724388 34.82317069619894, 91.04710004106164 60.5660820864141 M91.6590925976634 60.05878181010485 C58.98637658692897 58.95908313076943, 29.321160271018748 60.966241171769795, -1.2122846320271492 62.808527417480946 M91.59634682908654 61.257786836475134 C65.93567352779209 60.92799940381199, 42.33112586736679 61.61052611146122, 0.9632507301867008 60.07599684223533 M-1.6900201514363289 62.03727001696825 C-2.3305563450977207 44.09782439433038, -0.09475250255316492 29.679321459680796, 1.957088641822338 -1.3741705939173698 M0.16102657094597816 61.91360613331199 C0.3826276033744216 44.958752993866796, -0.04293155971914531 28.28804520964622, -0.18901517614722252 0.04843219742178917" stroke="#000000" stroke-width="1" fill="none"></path></g><g transform="translate(582 394.5) rotate(0 20.5 13)"><text x="0" y="18" font-family="Virgil, Segoe UI Emoji" font-size="20px" fill="#000000" text-anchor="start" style="white-space: pre;" direction="ltr">TAE</text></g><g><g transform="translate(650 401.5) rotate(0 133.93075349402613 2.618294630525668)"><path d="M-1.0140120908617973 0.6223620101809502 C43.32000452577602 1.3437358809014164, 221.91937842068728 3.7421057286361856, 266.77435298410245 4.424528488516808 M0.6544928320962935 -0.09650187981314962 C45.27129292395431 0.7160043453456212, 224.41066342408303 4.390504644938434, 268.87551907891407 5.333091140864417" stroke="#000000" stroke-width="1" fill="none"></path></g><g transform="translate(650 401.5) rotate(0 133.93075349402613 2.618294630525668)"><path d="M241.51509939714666 13.067302004022086 C248.81576999408676 12.020200078141764, 259.64514485164466 10.157626695360165, 267.5013484849967 4.744352155504748 M241.3914355134904 15.687974032533848 C250.91481418420906 11.840520939099125, 260.65986768781045 8.019237718733295, 268.92395127633586 5.203692888049408" stroke="#000000" stroke-width="1" fill="none"></path></g><g transform="translate(650 401.5) rotate(0 133.93075349402613 2.618294630525668)"><path d="M241.94106959319132 -7.449485068468604 C249.1030692549732 -1.028223478230541, 259.77731097517545 4.581166146182379, 267.5013484849967 4.744352155504748 M241.81740570953505 -4.828813039956842 C251.05961223285948 -1.5147725064879913, 260.65599281561043 1.8247519748498107, 268.92395127633586 5.203692888049408" stroke="#000000" stroke-width="1" fill="none"></path></g></g><g transform="translate(925 150.5) rotate(0 319.5 288)"><path d="M0.47456662952899936 0.6057739943265915 C212.49054626859726 -1.4811428816467522, 426.0803326703608 -1.8478900702148677, 638.6786610394716 0.6470363348722459 M0.3888312205672264 -0.32815199941396717 C150.81212066523733 -1.9375329604595903, 302.3616659082473 -1.7932623019665483, 639.3760532721877 -0.33249822705984117 M639.570280149579 -0.006899669766426086 C638.6115081130266 227.57461323440077, 638.7842199622393 454.19203617274763, 639.1047242909669 576.7462492674589 M638.7608406409621 0.3385798826813698 C637.2583295792937 158.25492316633463, 636.7446581334472 316.30460537821057, 638.7655782565474 576.2280218020081 M639.4081353932619 576.3035681456328 C505.48330134116117 575.3580190382153, 370.73168811425563 575.5597105703503, 0.09294879734516144 576.3313966482878 M639.2556024417281 575.7854646578431 C443.6616900045425 578.0733645083159, 247.75526383444668 578.2564138533324, -0.264185394346714 576.3068294897676 M0.33237064182758336 576.6632516592741 C0.42685952866077415 436.8530310600996, 1.3179490634202957 297.0886814326048, -0.15930216014385223 -0.07457230389118195 M-0.24978376775979996 576.2877464666963 C1.038806338250637 379.8710605278611, 0.8640417527556419 183.94679554849864, -0.08770057111978531 0.2057314768433571" stroke="#000000" stroke-width="1" fill="none"></path></g><g transform="translate(965 189.5) rotate(0 36 41)"><path d="M1.4387323334813118 1.0484694764018059 C17.67911900728941 0.6242573308944702, 36.38161047846079 0.011107926368713383, 73.02865738421679 -1.6794064715504646 M-0.8498748876154423 -0.31070008501410484 C26.72895871922374 1.2970177100598812, 53.11549725160003 0.9230103658139706, 72.34145828709006 0.5329761244356632 M71.42365974932909 -0.5202401354908943 C71.36758530654014 20.29037939682603, 72.99137390173972 36.97177987396717, 73.20298451930285 83.26573126763105 M72.42992207035422 0.7682580687105656 C73.34400689937175 16.73302256911993, 72.30348444320262 34.54102208539844, 71.30164083465934 81.50472984090447 M73.1489512398839 83.02530043572187 C44.81545057147741 80.50199266850949, 16.270714856684208 82.07800647199154, -1.0432129427790642 81.06803911179304 M71.40807947143912 81.40416583791375 C46.151686631888154 81.78460288330912, 20.317012389749287 80.4946028022468, -0.6019499637186527 81.2733013369143 M0.2017650082707405 81.39871423691511 C-0.9563306663185357 61.6758334569633, 0.5781482364982368 39.77051096558571, 1.760035701096058 -1.3166723921895027 M0.8515650890767574 81.89841482415795 C-0.31626490004360674 62.289796468615535, -0.7504870022088289 41.83618070706725, 0.6437474153935909 0.3314884640276432" stroke="#000000" stroke-width="1" fill="none"></path></g><g transform="translate(10 23.5) rotate(0 330.5 386)"><path d="M0.42819649875164034 0.6731912404298783 C229.31072408147156 -2.7807039271146063, 458.99263826087116 -2.3641352663785224, 661.5857460707426 -0.6514191836118699 M-0.3222314462065697 -0.034139837324619296 C210.28248538039625 -1.789715853318572, 420.43724035397173 -1.9317366033643484, 660.6604691401124 0.10586236566305161 M660.5061020582914 0.6524557858705521 C658.4426877282261 170.0511441394687, 658.192004992783 340.41963534951213, 661.3455577582121 772.4185466557741 M660.6555340662599 0.28491242974996567 C664.2385004812479 276.70246345698837, 663.6790357881785 552.9146784856916, 661.1149817839265 771.8856919154525 M661.4013873785734 771.370151117444 C489.8215943377465 770.8899499953538, 318.3636488310993 771.3528260291368, 0.3386671751737595 772.6032128125429 M660.6155520811677 771.9145100459457 C521.4355921868236 769.357037496075, 382.5085024707019 769.2852712626308, -0.1616808041930199 772.305900798738 M0.7682516783475877 771.4767655164003 C-2.0216408191323283 591.2683528319001, -3.2632598338723184 410.54790706634515, 0.11614854037761689 0.20619256794452667 M-0.35599576085805895 771.7286276206374 C-2.4557605690956117 586.848539018631, -2.421759075641632 401.11496988683933, -0.10677448362112046 0.288901124894619" stroke="#000000" stroke-width="1" fill="none"></path></g><g transform="translate(974 197.5) rotate(0 11.5 11.5)"><path d="M-0.9024420455098152 -1.7799788042902946 C6.1359417360276 -1.247433349750936, 16.326600603014235 -1.0774258824810385, 22.77144592255354 -0.5338724181056023 M0.13035473600029945 0.35346147045493126 C8.49982179813087 0.21663377683609725, 17.921386180818082 -0.23969831068068742, 22.192826721817255 0.9386888407170773 M24.52411811798811 -1.2943265959620476 C24.592946609593927 7.176129288598895, 22.54834731493145 9.95634622052312, 22.947204999625683 22.532536931335926 M22.281746361404657 -0.8213886357843876 C23.70872613441199 6.655148121342063, 23.51888855945319 10.859311679005623, 22.642775628715754 23.422373738139868 M24.136217527091503 21.35625023394823 C13.728801291063427 21.382250662110746, 8.99856248423457 24.53423749949783, -0.7923267558217049 24.595169730484486 M23.04038057103753 22.210544552654028 C15.792331913486123 23.141247351653874, 8.494085654616356 22.841508586890996, -0.3882897160947323 23.867114391177893 M-0.44627077132463455 21.06359738856554 C0.13431064870208503 16.570553560927507, 1.668034718297422 6.963930936902759, 1.4149112030863762 -0.8213158175349236 M0.5045239664614201 22.876385059207678 C0.7720999361947178 17.80617242641747, -0.2509667037054897 12.45260026603937, 0.8893035389482975 -0.42887142673134804" stroke="#000000" stroke-width="1" fill="none"></path></g><g transform="translate(1011 197.5) rotate(0 8.5 13)"><path d="M-1.3721945729106664 1.5957710292190315 C4.345878380537034 0.29629114743322127, 11.617812189087273 1.3548241603001951, 15.89982239343226 1.3267533686012027 M-0.022437875159084797 -0.1986718041822314 C6.025196068175137 -0.038155685514211626, 12.446128465794027 -0.4992341922223568, 16.30181965958327 0.6367877440527082 M16.285551257431507 0.8447474762797356 C17.950851863101125 8.674459493905307, 16.325411027148366 20.903516909480096, 15.35625023394823 24.555042915046215 M16.603836622089148 0.7975848652422428 C17.43366605348885 6.621875740587711, 17.832150402739643 11.67941628023982, 16.210544552654028 26.196101162582636 M16.339907482638957 27.474094465002416 C12.715247786790131 24.28758885074407, 5.4900788288563485 25.56958148885518, -1.6459422197192908 25.92311193011701 M17.60133726131171 25.650940777547657 C9.826294324733317 26.77726235114038, 4.91872708853334 26.42598113141954, -0.10507269967347388 26.83571406174451 M1.778607077896595 25.142257146537304 C-0.09491235502064227 17.007439681142568, 1.8275441478937864 12.85936995744705, 0.039873071014881134 0.7130109593272209 M-0.132166538387537 26.18902549520135 C0.49574593447148796 16.37083708643913, -0.33760412789881233 5.652353420108554, 0.6306006573140621 -0.2756707929074764" stroke="#000000" stroke-width="1" fill="none"></path></g><g transform="translate(978 235.5) rotate(0 9.5 12.5)"><path d="M1.5226670820266008 1.062716506049037 C2.7237815797328953 -0.8210670952871442, 9.473146275803447 0.6228153343126179, 17.85126931257546 -0.7790126699954272 M-0.7236377069726586 0.7842467227950691 C7.552962691523136 -0.23908428594470027, 14.31651892345399 0.34534952595829954, 19.762239991687238 0.5866387346759439 M18.99843805283308 0.603248305618763 C18.20159666147083 6.824371995404363, 20.536864920519292 16.159455951303244, 17.045502595603466 23.455792374908924 M19.78586981073022 0.7216337583959103 C18.741101202555 7.649617137387396, 18.34729176480323 13.01640895754099, 19.91779598966241 25.930216994136572 M18.448942931368947 24.924240110442042 C10.935775611549614 26.87648339662701, 4.867953216657042 25.0867911497131, -1.8493064921349287 26.726318154856564 M19.832208400033416 24.831678012944757 C11.725709775276481 24.942177829667926, 5.972268058173357 25.494930962249637, 0.4260370722040534 24.635512361861764 M-1.8096888735890388 25.508382983505726 C-0.0026533594354987144 19.831770492717624, -1.6876945486292243 10.189528424292803, -0.1204276755452156 -1.1643262431025505 M0.13039729371666908 25.407764997333288 C-0.6592572228983045 17.185788979753852, -0.32916681934148073 8.469760075211525, -0.5425395034253597 -0.9243698455393314" stroke="#000000" stroke-width="1" fill="none"></path></g><g transform="translate(1013 239.5) rotate(0 8 11)"><path d="M1.3028312265872954 -0.633861404657364 C4.920170116424561 0.21836451470851895, 8.57184128165245 0.8559394735097885, 16.06460891366005 -1.2631287157535553 M-0.24041579067707064 -0.31063177287578586 C5.807453373074532 0.33476137399673467, 9.445724758505822 -0.6659429144859315, 15.821491691470147 -0.7745610445737839 M15.966303057968616 1.4149112030863762 C15.351575540825724 4.764669563621283, 18.008483337685465 14.861429572105408, 17.00904793292284 21.752770118415356 M15.260195340961218 0.8893035389482975 C15.507321965321898 8.71038488149643, 14.962874185666442 18.434637763351205, 16.47560688480735 22.01993653550744 M14.870505863428116 21.78853353857994 C10.932032024860382 22.691137216687203, 5.976718586683273 21.35777711689472, -0.3078409612178803 23.0089610517025 M16.061998721957206 22.740307596325874 C11.029055514931677 21.73168080687523, 7.233975467085837 21.574940141439438, 0.3231676787137985 21.6270191937685 M-1.5516274496912956 23.391375951468945 C-0.9201340471953153 14.60948453620076, -1.1137664114683867 3.411997112631795, -0.5136280581355095 -1.3399942591786385 M-0.9527365304529667 22.454938504844904 C0.15097127683460712 14.592611320316792, -0.9885921644419432 6.87491075322032, -0.6711094714701176 0.8747026659548283" stroke="#000000" stroke-width="1" fill="none"></path></g><g transform="translate(1125 206.5) rotate(0 36 41)"><path d="M1.8171770051121712 0.9512137696146965 C18.551998798549178 1.4138007879257202, 38.776269139349466 0.34642775058746333, 70.58813232928514 -0.264333076775074 M-0.38367119804024696 -0.19240060076117516 C23.591584222763778 -0.5985620476305484, 45.01712269410491 -0.06869976297020908, 72.07749840244651 0.9253844954073429 M70.83567375689745 0.8079191967844963 C70.75083340682089 19.935574022680523, 71.94408000983297 37.46916604340077, 70.4483725503087 83.39137595146894 M71.07563015446067 -0.25681402906775475 C71.73144048549234 21.513626359403133, 73.24505621291696 42.20347363874316, 71.04726346954703 82.4549385048449 M73.15312833338976 80.65778105705976 C49.726120279729365 82.96661943852901, 23.865220929682252 79.48684710919856, -0.1783180758357048 82.40816133469343 M71.36024507507682 82.39001903310418 C56.9279138199985 82.40608825013041, 40.18487928733229 80.88323904797434, 0.09270831570029259 81.12310716882348 M1.7316989377140999 80.8394223973155 C2.425203643068671 59.97335886284709, 1.0057030536979437 42.710009866952895, 1.5530311539769173 -1.633166380226612 M0.5496413372457027 81.73699018731713 C1.0578421937674283 52.14305727183819, 0.8769770251959562 21.155298825353384, 0.5393944643437862 -0.8898116610944271" stroke="#000000" stroke-width="1" fill="none"></path></g><g transform="translate(1134 214.5) rotate(0 11.5 11.5)"><path d="M0.9512137696146965 0.039873071014881134 C7.491939536854626 1.5430423286929726, 13.203495077043774 -1.620843026302755, 22.735666923224926 0.3780509904026985 M-0.19240060076117516 0.6306006573140621 C7.658590595051646 -0.8166000612452626, 16.122714267671107 0.1657427779957652, 23.925384495407343 -0.7650221921503544 M23.807919196784496 -0.9324520155787468 C24.594906815625727 6.272448820993304, 23.801680811978876 10.471681017428637, 24.391375951468945 22.108553357422352 M22.743185970932245 -0.6699971295893192 C23.443773508183657 8.869602152332662, 23.188552022092043 15.099230578541754, 23.454938504844904 23.336567368358374 M21.657781057059765 24.749405331909657 C16.624869148805736 23.044400792382657, 5.225189357250928 22.954291682504117, 0.40816133469343185 21.355786986649036 M23.39001903310418 23.608746971935034 C16.702404860034584 22.399401958473028, 8.056878241896628 22.945564682967962, -0.8768928311765194 22.506146278232336 M-1.1605776026844978 24.75854081660509 C-1.363682958818972 18.308948155120014, 1.9233675267919899 14.49284700974822, -1.633166380226612 1.4256600812077522 M-0.26300981268286705 23.25333198532462 C0.39536421556025747 18.429019840434194, -0.14718789797276258 14.252500511705875, -0.8898116610944271 -0.09869268909096718" stroke="#000000" stroke-width="1" fill="none"></path></g><g transform="translate(1171 214.5) rotate(0 8.5 13)"><path d="M0.03389211036264905 0.6060593154281377 C4.934572380781174 -0.3820609367266298, 5.6906271781772375 -0.30553628567606206, 17.321343341842294 0.7644540693610906 M0.5360105587169527 -0.23432017397135496 C5.093264357931912 0.2487708701193333, 11.79063790049404 0.8192849232256413, 16.349731136672197 -0.32830169629305606 M16.067547984421253 1.608755998313427 C17.10943217583001 8.458974016457796, 15.297010138705375 16.678263995051385, 16.108553357422352 26.97911613434553 M16.33000287041068 0.5685575939714909 C17.603282437995077 6.702733398973942, 15.806927309706808 13.233733087033034, 17.336567368358374 26.44343802705407 M18.48699453212321 27.313060119375585 C13.19011570289731 24.241165029294788, 9.37861628346145 26.232848524339495, -1.397581061348319 26.164587655290962 M17.51743492614478 26.701319934614002 C12.503855202533304 25.473201348409056, 8.857384968362748 25.32094432912767, -0.41977566350251433 25.308947070129214 M1.758540816605091 24.523758344352245 C0.11391936533153058 21.283211489766835, 1.3279102920740842 11.311638939380645, 1.4256600812077522 -1.9622200205922127 M0.2533319853246212 26.588263604789972 C-0.0704399309307337 16.065109699964523, 0.3964877166599035 5.148984756320715, -0.09869268909096718 0.005204889923334122" stroke="#000000" stroke-width="1" fill="none"></path></g><g transform="translate(1138 252.5) rotate(0 9.5 12.5)"><path d="M0.6773604113608598 1.6644168000668285 C7.089674180746078 -1.345062228925526, 14.601519886776805 0.35536049913614987, 19.8543898422271 0.8520741444081068 M-0.2618872532621026 -0.8596022149547934 C5.21250664088875 -0.04619064256548877, 10.821164718084038 -0.8465852074325084, 18.63307457473129 -0.05720314588397746 M20.608755998313427 0.26079458743333817 C19.91651989426464 4.492964746430516, 20.492365851067007 11.197737749665976, 19.97911613434553 23.91492099314928 M19.56855759397149 0.8436185978353024 C19.24913260061294 4.236338855698705, 19.390734997577965 10.714718140661716, 19.44343802705407 24.197003927081823 M20.467537780478597 24.916201482340693 C10.366282150894403 24.996791334487497, 5.796809434518216 23.604191143848002, 0.18395090885460386 23.894321320578456 M19.78382816221565 24.56921831164509 C13.852655777521433 25.203734824582934, 9.198020525090396 24.646500888988374, -0.7723532745614647 24.53508364353329 M-1.4762416556477547 25.339040227234364 C1.9558810302987695 16.888407481834292, -1.4880941798910499 7.0964127369225025, -1.9622200205922127 1.6773859933018684 M0.5882636047899723 25.07246681675315 C0.11146394442766905 16.66529112122953, -0.8240592079237103 7.153100624680519, 0.005204889923334122 -0.7547585107386112" stroke="#000000" stroke-width="1" fill="none"></path></g><g transform="translate(1173 256.5) rotate(0 8 11)"><path d="M1.4016141474246981 -0.2834896624088288 C4.431476879119874 -0.26850733816623684, 11.424382823705674 0.6624453061819078, 16.717536121606827 -0.6138739168643952 M-0.7238755494356156 0.2033531934022903 C4.554157760739327 0.7844149231910705, 8.372300323843955 -0.26488250494003296, 15.951828929781914 -0.4657304972410202 M16.260794587433338 0.8155299946665764 C14.345802828595042 8.88008706793189, 15.00598363570869 15.956538367271424, 14.91492099314928 20.151260308921337 M16.843618597835302 0.3133361078798771 C14.899864101037384 6.489947640895844, 16.189167999848724 12.513456299155951, 15.197003927081823 22.57656416669488 M15.929432827234269 20.452003425359727 C12.131120693683625 22.450111196637152, 7.232179898023606 22.278488157391546, -0.9310978353023529 20.97639212012291 M15.637236472964286 21.441786459088327 C10.650136199593543 21.43049889922142, 4.7568561166524885 21.48161040663719, -0.39150851070880893 22.69267957508564 M0.33904022723436356 23.810808829963207 C1.3595916641503571 15.043468982726335, 1.232220591381192 9.391050705313681, 1.6773859933018684 1.0992826744914055 M0.07246681675314903 22.045711491256952 C0.48366142757236963 15.08880992680788, -0.15442572586238382 9.962448065727948, -0.7547585107386112 -0.948071863502264" stroke="#000000" stroke-width="1" fill="none"></path></g><g transform="translate(1249 350) rotate(0 36 41)"><path d="M-0.681081585586071 -0.4892178252339363 C19.305771915614606 -0.3857267999649048, 37.815277089178565 2.095789322853088, 70.40121407061815 1.0044028088450432 M0.45095309242606163 -0.04327550157904625 C18.94901201054454 0.27409752115607255, 38.927627416700126 -1.023707430511713, 72.78330799564719 -0.9397421143949032 M73.52326721698046 1.6318308636546135 C70.09566550292075 23.10837313309312, 72.98709325827659 45.42639947235585, 71.16800946742296 80.98500197380781 M71.14496513828635 0.6121902205049992 C71.25296768046915 29.506298707425596, 72.7754029879719 57.805165647715334, 71.17430719360709 82.98254260793328 M72.41915196925402 82.88470786064863 C49.87070302814245 82.82207582890987, 22.546565915644166 83.16072390973568, 1.152952142059803 80.15284936875105 M71.13987668976188 82.98769149556756 C50.56541820690036 83.38065837189555, 27.398029883950947 81.86412630841136, -0.5396778918802738 81.20848104730248 M0.7812308743596077 80.79553621262312 C-0.6453558395057917 51.53945974633098, 0.4262934734672308 23.696644693613052, 1.013512797653675 -0.7237444594502449 M0.10890552029013634 82.97836992517114 C0.46303794495761397 56.89531480967999, -0.5742420185357332 31.216285725682972, -0.43933573737740517 0.8246210552752018" stroke="#000000" stroke-width="1" fill="none"></path></g><g transform="translate(1258 358) rotate(0 11.5 11.5)"><path d="M-0.4892178252339363 0.966358132660389 C6.050956241413952 1.2147739056125284, 15.51000695601106 -1.5204615470394491, 24.004402808845043 -0.47201424092054367 M-0.04327550157904625 -0.9517367221415043 C6.927348510548473 -0.977589259929955, 11.840206561982633 0.6795887843891978, 22.060257885605097 -0.2916039563715458 M24.631830863654613 -1.892380528151989 C23.96963796529919 7.86551780216396, 24.078816746808588 12.90095061734319, 21.98500197380781 24.03027767688036 M23.612190220505 -0.9658660031855106 C23.70480785381049 8.070371099933983, 23.17953631889075 14.201910784840583, 23.982542607933283 23.314227547496557 M23.884707860648632 24.733141370117664 C16.38780297525227 21.319645076058805, 9.647177081555128 24.201154618524015, -1.847150631248951 23.191878981888294 M23.98769149556756 23.856182541698217 C18.96858537532389 22.781730192191898, 12.633168372511863 22.262493746764957, -0.7915189526975155 23.588634338229895 M-1.2044637873768806 22.32851953059435 C-1.061223709322512 16.573445244506, 0.5227628114446997 10.360065599530934, -0.7237444594502449 0.13119787722826004 M0.9783699251711369 23.89465793594718 C-0.014059946350753333 14.746736534312367, -0.5551777337118984 6.339381386339664, 0.8246210552752018 -0.7170408107340336" stroke="#000000" stroke-width="1" fill="none"></path></g><g transform="translate(1295 358) rotate(0 8.5 13)"><path d="M0.8214044127613305 -0.7875915978103876 C4.788971489667892 1.363280621729791, 6.287010749801993 0.8953259026631711, 16.598787895217537 -0.5095099542289971 M-0.8089762138202786 0.6091826813295483 C5.402209870703519 -0.4865946923196316, 12.955810620449485 -0.7914239619672297, 16.752136637084185 -0.012391309253871441 M15.107619471848011 0.8995255753397942 C18.197071965411304 9.601279199868442, 16.36603420563042 16.170151659846308, 18.03027767688036 26.53374069184065 M16.03413399681449 0.6821602322161198 C17.33426024027169 8.212905289232731, 15.951998129561545 17.094575791805983, 17.314227547496557 26.077945206314325 M18.473170164600013 26.397015407308935 C9.592534411698578 26.760066444166007, 6.103625724837183 24.505122131593527, 0.16309713460505004 24.46178452037275 M17.727755160443486 26.66934976745397 C10.48204185757786 25.54820506773889, 3.540107966028154 25.495116444453597, 0.5003391874954105 25.972919590957463 M-0.6714804694056511 24.966261319816113 C0.2986088299006224 18.439547511190177, 0.9119527839869261 9.054854881763458, 0.13119787722826004 1.0527316853404045 M0.8946579359471798 26.03322610631585 C-0.17093746282160283 17.157570332288742, -0.4676511726528406 10.155545081943274, -0.7170408107340336 -0.27697494253516197" stroke="#000000" stroke-width="1" fill="none"></path></g><g transform="translate(1262 396) rotate(0 9.5 12.5)"><path d="M-0.8802494328469037 1.0796270471066234 C6.530163377523422 -1.610650655515492, 11.060127655789255 -0.5402175514772536, 18.43054769821465 1.1679405193775891 M0.6808512320742011 -0.8301765462383628 C6.004747403599322 0.9249725730717182, 12.220866742543876 -0.09619378134608264, 18.986150889657438 0.28959465418010955 M19.899525575339794 0.999047227203846 C20.21268321480602 8.572093488648536, 18.18898083176464 19.838445719331506, 19.53374069184065 25.19693583995104 M19.68216023221612 0.556569304317236 C19.30993625242263 4.536720039322972, 20.135590163059533 11.039053238928318, 19.077945206314325 25.493053998798132 M19.44372310228646 23.357870469614863 C13.667244408279657 26.259952965117993, 5.048818158730862 25.346933462955057, -1.7191820066422223 26.565357373282314 M19.748096798919143 24.980580625869333 C14.241625628061593 24.6499806856364, 10.116525573842228 25.72187730424106, -0.030266339518129848 25.113525120355188 M-1.0337386801838875 25.40016884356737 C0.7008058140054345 17.536974204704165, -0.5731864860281348 8.17812069132924, 1.0527316853404045 0.41118306666612625 M0.03322610631585121 24.857377972453833 C-0.752484162338078 16.788400461897254, 0.5800285739824176 8.738431587815283, -0.27697494253516197 0.14254888519644737" stroke="#000000" stroke-width="1" fill="none"></path></g><g transform="translate(1297 400) rotate(0 8 11)"><path d="M0.9091596186161044 1.243950217962265 C3.1295969963073738 0.8776485151052478, 8.439640086889268 -0.4054125124216079, 16.983528858423234 0.7215249478816985 M-0.6990960389375687 -0.46489555537700655 C5.35740559399128 -0.866463372707367, 9.228235229849815 -0.12633208990097047, 16.24386918246746 0.6093068867921829 M16.999047227203846 1.0087043568491936 C14.959847609326243 7.380015923827887, 16.82211581878364 17.3237685918808, 16.19693583995104 20.289930276572704 M16.556569304317236 0.156888697296381 C14.961816672906279 8.929361093044282, 16.101737026795746 15.971582176536323, 16.493053998798132 22.20957598462701 M14.617154079675675 22.64458002448082 C11.414595425128937 20.559645650982855, 5.137970608472823 20.58963393986225, 1.3181956827640535 20.623802703619003 M15.983646842837334 21.41675060093403 C9.187951293587684 21.49278008818626, 3.710294684767723 22.100507806539532, 0.09560010135173802 22.31249234974384 M0.40016884356737137 22.550247840583324 C1.0873756492882967 16.001165706664324, 0.20506072886288165 12.502552017569542, 0.41118306666612625 0.21781104058027267 M-0.14262202754616737 21.492108318954706 C-0.6361604832857847 14.0722072198987, -0.9138655566424131 4.218197386711836, 0.14254888519644737 0.9772373177111149" stroke="#000000" stroke-width="1" fill="none"></path></g><g transform="translate(1409 367) rotate(0 36 41)"><path d="M1.5549377724528313 -1.5987859293818474 C26.083292086422443 -0.8811360692977905, 49.55835507959127 0.8202892446517944, 72.90190618485212 -0.0865510031580925 M-0.5811194442212582 0.783307995647192 C13.807753486186266 0.337582478672266, 29.48041319027543 0.9340229131281376, 72.76163360849023 0.8159154318273067 M73.0087043568492 -0.8319905325770378 C71.35380745969712 17.871517511457206, 72.90254617772996 33.87941550910473, 70.2899302765727 83.22438044101 M72.15688869729638 -0.8256928063929081 C73.5419139983505 16.994126321375372, 72.63731659673154 33.85285154655576, 72.20957598462701 82.44235393032432 M72.80572503060102 83.1529521420598 C42.31354043632746 81.56959831774235, 14.511716865003109 83.02546393930912, -1.7202466204762459 83.97538299113512 M71.27093825116754 81.46032210811973 C43.44396674707532 82.5739164967835, 16.439112094789742 82.10478228524327, 0.39061543717980385 81.39776810631156 M0.5502478405833244 83.01351279765368 C-0.29991160057485106 60.28426780179143, 1.4765645442157984 38.717322915792465, 0.21781104058027267 1.9567398503422737 M-0.5078916810452938 81.5606642626226 C0.7973756480962038 49.346764114499095, -0.30422034971416 18.270158735662697, 0.9772373177111149 0.2225632332265377" stroke="#000000" stroke-width="1" fill="none"></path></g><g transform="translate(1418 375) rotate(0 11.5 11.5)"><path d="M-1.5987859293818474 1.0044028088450432 C5.362420656159521 -0.7782413193956017, 12.89828086718917 0.7230883410200477, 22.913448996841908 -1.9034734442830086 M0.783307995647192 -0.9397421143949032 C8.256772710755468 0.11907946128398181, 17.401589812338354 0.8952910806611181, 23.815915431827307 -0.9461902640759945 M22.168009467422962 -1.0149980261921883 C24.145168108008804 8.468195103481413, 23.311826271079482 14.158839099854232, 24.22438044101 21.06826799362898 M22.174307193607092 0.9825426079332829 C23.442238487489522 8.546913740411402, 23.621064938791097 17.14751305282116, 23.442353930324316 23.866570685058832 M24.152952142059803 21.15284936875105 C15.754740489646792 21.28299310836941, 9.773467618972063 21.372411758042873, 1.9753829911351204 24.712365083396435 M22.460322108119726 22.208481047302485 C14.87745261453092 22.800456493012607, 5.697136679291724 23.222931234948337, -0.6022318936884403 22.664259765297174 M1.013512797653675 22.276255540549755 C0.08517846021801231 18.341531167551874, 0.36516364965587855 11.795410005003214, 1.9567398503422737 1.7893158718943596 M-0.43933573737740517 23.824621055275202 C-0.6842377443984151 15.746605012938378, 0.17535195153206587 10.024397228658197, 0.2225632332265377 -0.6501689217984676" stroke="#000000" stroke-width="1" fill="none"></path></g><g transform="translate(1455 375) rotate(0 8.5 13)"><path d="M0.8537423875182866 -0.40121210478246216 C5.556472140550614 1.1808962160721421, 12.898584446683527 0.062328451313078376, 15.382047572359443 1.2183653626590967 M-0.7987807972356676 -0.2478633629158139 C3.6020296080037952 0.1259486471116543, 7.876230401732028 0.5603657577931881, 16.195738275535405 0.38229836951941254 M15.985001973807812 1.0302776768803596 C17.664872258231043 9.29569723531604, 15.421061842963098 19.42190323174, 15.068267993628979 27.36432046443224 M17.982542607933283 0.31422754749655724 C17.118736267611386 9.740134190022946, 17.25036704592407 18.936514312773944, 17.866570685058832 26.23353847488761 M15.429921963438392 26.16309713460505 C11.831058310717346 27.49858384501189, 8.276337953284383 27.777076474539935, 1.4555103208869695 27.33869953490794 M16.32720889020711 26.50033918749541 C11.907670049928129 26.009829866066575, 7.2015240395441635 25.396357648745177, -0.28537919949740176 25.56066106092185 M-0.7237444594502449 26.13119787722826 C0.9811994660645723 18.090963570028542, 0.14627882130444048 11.316300857067105, 1.7893158718943596 0.06645221263170242 M0.8246210552752018 25.282959189265966 C-0.14492310546338558 18.713366156816484, 1.1092891547828914 11.364197776466607, -0.6501689217984676 -0.3040241338312626" stroke="#000000" stroke-width="1" fill="none"></path></g><g transform="translate(1422 413) rotate(0 9.5 12.5)"><path d="M-0.4484135288745166 -0.5694523017853499 C8.34513140320778 0.7613926087692381, 14.272158314660194 -1.9037180389091373, 20.3617024641484 -1.6603530924767256 M-0.27702375855296846 -0.013849110342562199 C4.885467710159719 0.9021029298007488, 9.96686577219516 -0.7203297491371632, 19.427274648286403 0.4745474329218269 M20.03027767688036 0.5337406918406487 C19.09293702337891 7.050810722634196, 20.12038162443787 15.590028885751963, 20.36432046443224 26.113138608634472 M19.314227547496557 0.07794520631432533 C19.286630797199905 8.101797727867961, 19.23593072872609 16.651014171540737, 19.23353847488761 24.135721299797297 M19.182285032793878 23.28081799335778 C14.099918594211342 23.190286400578916, 7.9457362834364185 26.45126751925796, 1.4961935978382823 24.961161251738666 M19.5592026213184 24.96973366048187 C14.79874244313687 25.22069606430829, 9.798314346559346 24.530658176019788, -0.4910258730873465 25.190080200694503 M0.13119787722826004 26.052731685340405 C0.28449396695941687 17.030001239851117, 1.8300507506355643 10.413696270436045, 0.06645221263170242 -0.28524405509233475 M-0.7170408107340336 24.723025057464838 C0.25238281954079866 19.74696652032435, 0.332397167570889 11.889289483428001, -0.3040241338312626 0.45103583112359047" stroke="#000000" stroke-width="1" fill="none"></path></g><g transform="translate(1457 417) rotate(0 8 11)"><path d="M-0.4795387804508209 0.9835288584232331 C4.242496204376221 -0.031479663252830414, 5.519163757562637 1.1844579511880875, 14.601807922124863 -0.9297911107540131 M-0.011662408709526062 0.2438691824674606 C6.66259967982769 0.6993889784812928, 11.34963337481022 0.40646686315536495, 16.399618890881538 0.4034817427396775 M16.53374069184065 0.19693583995103836 C14.178280493691563 6.909190855175257, 13.956618210747838 12.733941292762758, 17.113138608634472 22.313777394592762 M16.077945206314325 0.49305399879813194 C16.425735358372332 5.225829756259919, 17.082730058804156 9.800490126758815, 15.135721299797297 22.402862515300512 M14.552267783880234 23.318195682764053 C8.90144098997116 23.59565671145916, 5.925168639421463 23.27530282199383, -0.03270631432533255 20.833501201868057 M15.97451255619526 22.09560010135174 C12.375976976752282 21.61239597916603, 7.858377066254615 21.680686022043226, 0.16006753742694857 22.22009913623333 M1.0527316853404045 22.411183066666126 C0.2974229311197996 16.24187577292323, 1.8689277624338865 6.636724057793614, -0.28524405509233475 -1.0157833620905876 M-0.27697494253516197 22.142548885196447 C0.7958206855505705 16.58910185545683, -0.831585553959012 10.429053110629319, 0.45103583112359047 -0.049395833164453506" stroke="#000000" stroke-width="1" fill="none"></path></g><g transform="translate(1207 562) rotate(0 36 41)"><path d="M-1.207547016441822 -1.5020306631922722 C22.949334080517293 -0.9225897741317748, 46.737250028550626 -2.0998036813735963, 70.50177948921919 -0.602275900542736 M-0.7155459187924862 -0.11704603210091591 C20.015002102404836 1.1105002881586552, 38.8922519363463 1.16145808711648, 72.78813013806939 -0.1701052524149418 M70.23730080574751 0.7471942380070686 C71.3942924388498 31.921069069951773, 71.09400924526155 64.51578893363475, 72.82302349060774 82.16691512614489 M72.88806662335992 -0.13602379336953163 C72.39455685637891 28.701110507547856, 71.51353046916425 58.03259524181485, 71.02318570390344 82.19711312279105 M71.96949451416731 81.46969337016344 C45.86630938202143 83.99949236452579, 17.622186444699764 84.64654298365116, -1.192654199898243 83.38911671191454 M71.08512780442834 82.20424756035209 C56.64390277937055 81.3072907538712, 42.27052214518189 81.74604304745793, 0.4626518227159977 82.66613432392478 M0.022969655692577362 82.76824993640184 C-0.188458656296134 50.30526687577367, 1.5676088581234215 16.886664003133774, -1.0191305354237556 1.549924559891224 M-0.29562702402472496 81.78792330250144 C1.1125987435132265 56.20188925564288, 1.1944858694821596 28.70078181400894, 0.5016700960695744 0.1172073744237423" stroke="#000000" stroke-width="1" fill="none"></path></g><g transform="translate(1216 570) rotate(0 11.5 11.5)"><path d="M-1.5020306631922722 -0.5221429541707039 C8.731384958699346 -0.06683613393455745, 16.648096784204245 -1.359352603890002, 22.397724099457264 -0.4599950984120369 M-0.11704603210091591 0.07098445668816566 C6.903804029896857 -0.83120779376477, 13.367857064306738 0.952705699391663, 22.829894747585058 0.849360678344965 M23.74719423800707 -0.18693716078996658 C23.40511756684631 5.238179742172361, 24.435079868100583 12.273823683708907, 23.166915126144886 24.16005413979292 M22.86397620663047 -0.004529740661382675 C22.128667703159152 7.133833107724785, 22.10393046427518 15.061964175105093, 23.197113122791052 23.847550246864557 M22.46969337016344 24.56867115944624 C17.200214911624787 24.02340186867863, 10.721942812949417 21.803837669230997, 1.3891167119145393 21.052800826728344 M23.204247560352087 22.233985755592585 C17.26539515517652 22.240267492644488, 12.243134394288063 23.252231217734515, 0.6661343239247799 23.969950173050165 M0.768249936401844 23.192680053412914 C0.7391863873973489 16.979699967429042, -0.1258250662311912 6.042774263769388, 1.549924559891224 0.4084305092692375 M-0.21207669749855995 23.845735047012568 C0.3579465023800731 17.776142297312617, -0.8685958512499928 11.198710344731808, 0.1172073744237423 -0.2828291915357113" stroke="#000000" stroke-width="1" fill="none"></path></g><g transform="translate(1253 570) rotate(0 8.5 13)"><path d="M-0.44382151104509826 -0.30815965794026856 C6.247489482164384 -1.1811188727244735, 11.571188399568202 -0.3842619090899826, 16.60900416634977 -0.3598861303180456 M0.060336788184940815 0.41710247527807953 C2.7901875657960775 0.4803144298493862, 7.943117452599108 -0.12469163909554479, 17.72195657659322 -0.43409126866608855 M16.813062839210033 0.35631150752305984 C16.28362875036895 9.737994479388, 17.593872595354913 16.87035646736622, 18.16005413979292 26.97338194400072 M16.995470259338617 -0.6551114656031132 C16.345341194197534 4.675915811955929, 16.254083025977014 10.90864215567708, 17.847550246864557 26.0979663990438 M18.333370485529304 27.126706985011698 C11.18159148618579 27.63162394773215, 2.6036799032241107 27.13567314159125, -1.6551192972809077 24.936400953307746 M16.348887892253696 25.767446978203953 C12.422667764686048 26.17510851301253, 9.172419812716544 26.60093626059592, 0.8244576470926405 26.395082808844744 M0.19268005341291428 26.858858294785023 C1.9457615125924348 16.841033975034954, -1.0221165906637908 9.244298827648162, 0.4084305092692375 -0.6508870646357536 M0.8457350470125675 26.476454343646765 C1.0044851992279291 16.110258132219315, 0.5785331223160028 7.837899658828974, -0.2828291915357113 -0.4479046203196049" stroke="#000000" stroke-width="1" fill="none"></path></g><g transform="translate(1220 608) rotate(0 9.5 12.5)"><path d="M-0.3444137353450061 -0.19541883878409871 C3.090063387155533 -1.3737059045955538, 8.53349856324494 -0.38739176284521826, 18.597774324938655 -1.6355608861893414 M0.4661733547225595 -0.9459941873326897 C4.855046018026769 0.73523658439517, 8.519325518794359 0.7934055976569652, 18.51483917031437 0.20159024503082046 M19.35631150752306 -0.4872203543782234 C20.479673088528216 6.119649497792125, 19.26031440589577 11.753306154161692, 19.97338194400072 23.11981885880232 M18.344888534396887 -0.8855561278760433 C18.28614534717053 8.743352262303233, 19.16310717444867 20.28788336366415, 19.0979663990438 25.93604824319482 M20.25926074795425 25.97556449957192 C15.202939047664403 24.016002270244062, 8.977621299400925 23.29918454553932, -1.1887283463031053 23.893995602801443 M18.740087799169125 24.478153692744673 C15.195159649662674 25.29397652514279, 11.709341950900852 25.775909957960245, 0.44156313929706803 25.494297008775174 M0.8588582947850227 26.94874756783247 C-0.1021844008937478 16.452157394960523, 1.4538933178409934 10.351006370037792, -0.6508870646357536 1.0305029675364494 M0.47645434364676476 25.9276221729815 C-0.6970688356086612 18.740737656131387, 0.17022654879838228 11.195305928587912, -0.4479046203196049 -0.8039274476468563" stroke="#000000" stroke-width="1" fill="none"></path></g><g transform="translate(1255 612) rotate(0 8 11)"><path d="M-0.1645632326602935 -1.2318037450313568 C2.3997990608215334 -0.4528174585103989, 6.828754860162735 -0.3097130960226059, 14.622685569524766 -1.144873470067978 M-0.7966266840696336 0.43333327472209926 C5.243230459094049 -0.2145976090431214, 9.904941239953043 -0.48706989526748656, 16.169760206341742 -0.7050796777009964 M15.512779645621777 1.3862738087773323 C16.802460402920843 7.588828787952661, 17.139491052106024 15.81720926761627, 14.119818858802319 23.776133246719837 M15.114443872123957 -0.6798487044870853 C15.022189160957932 6.497860777378083, 16.846553703919053 12.69946170821786, 16.93604824319482 21.984747257083654 M16.82152799963951 23.578070598840714 C10.670121943950654 23.217336379885673, 5.690731269121169 21.105008613467216, -0.9313721239566803 20.536204487085342 M15.560550478100776 22.13212840259075 C11.24332536160946 22.489132772684098, 6.522367945313453 22.328067957162858, 0.41625011265277867 22.00918786227703 M1.94874756783247 21.993846841156483 C-1.0403253412991762 16.104849629849195, 0.38723570339381697 6.458963075280188, 1.0305029675364494 -0.5912540480494499 M0.9276221729815006 21.2499119900167 C0.3156083857268095 15.983776108920573, -0.46889090187847615 9.285232848674056, -0.8039274476468563 -0.38182536140084267" stroke="#000000" stroke-width="1" fill="none"></path></g><g transform="translate(1367 579) rotate(0 36 41)"><path d="M-1.539754681289196 -1.4982205107808113 C19.118009464442732 -0.3859416437149048, 39.01717528253794 -1.6475895833969116, 70.56890816241503 -0.23409206420183182 M0.5416665934026241 0.7881301380693913 C21.940982835739852 1.5663246940076352, 43.71148056611419 0.9291642735898494, 71.11865040287375 0.3735971190035343 M73.38627380877733 0.8230234906077385 C72.31300284422935 24.99361178055406, 73.11946966208518 45.7869341403246, 73.77613324671984 81.72795241326094 M71.32015129551291 -0.9768142960965633 C71.6599217209965 25.41040637344122, 71.56077499724924 50.06176049634814, 71.98474725708365 81.73484668508172 M73.97258824855089 80.80734580010176 C46.14190053790807 80.42248842656612, 16.25427465587854 81.20547244489192, -1.829744391143322 82.40849512070417 M72.16516050323844 82.462651822716 C56.58143688365817 82.57444560334086, 40.29540842399001 82.12480807110667, 0.011484827846288681 82.38412496820092 M-0.0061531588435173035 80.98086946457624 C1.1977926590293646 57.01844229027628, -1.003018965497613 32.25052652955055, -0.5912540480494499 -0.4241533949971199 M-0.7500880099833012 82.50167009606957 C-0.27348518736660477 50.18214342296123, -0.8385971821099519 18.12601778134703, -0.38182536140084267 0.9079798199236393" stroke="#000000" stroke-width="1" fill="none"></path></g><g transform="translate(1376 587) rotate(0 11.5 11.5)"><path d="M-1.4982205107808113 -0.602275900542736 C6.023083011433482 -0.2463236590847373, 11.244513181596995 -1.2540200492367148, 22.765907935798168 0.14196891337633133 M0.7881301380693913 -0.1701052524149418 C8.877990905568003 -0.6352789266780019, 16.269460712373256 -1.005932913608849, 23.373597119003534 -0.09346858039498329 M23.82302349060774 0.16691512614488602 C24.104023799039425 8.283140177652239, 21.063788518048824 16.395649714022873, 22.727952413260937 22.990940518677235 M22.023185703903437 0.19711312279105186 C23.643872337453068 5.4912100281566385, 23.73237033378333 10.771234515309335, 22.73484668508172 23.78433557972312 M21.807345800101757 24.38911671191454 C12.62843255288899 21.97555465247482, 4.987048297375441 21.39710325744003, 0.40849512070417404 21.46797151118517 M23.462651822715998 23.66613432392478 C17.699211290851235 23.50279022026807, 10.978834876418112 23.04947174359113, 0.384124968200922 23.096340026706457 M-1.0191305354237556 24.549924559891224 C0.18432453896850345 14.461425896361469, 0.8063969972357153 6.633371873944997, -0.4241533949971199 1.691470094025135 M0.5016700960695744 23.117207374423742 C-0.4961822913214564 14.556250389292835, -1.0172805474326014 6.626484657824038, 0.9079798199236393 -0.9061124660074711" stroke="#000000" stroke-width="1" fill="none"></path></g><g transform="translate(1413 587) rotate(0 8.5 13)"><path d="M-0.5119345154613257 -0.3909958336502313 C4.565265434980393 -1.3360478389635682, 8.633875068649651 -0.07162951115518806, 17.12067357636988 0.8342049505561591 M-0.1445894645527005 0.7219565765932202 C2.9730770276859406 0.04638809576630584, 6.06518943514675 0.18357542768120758, 16.920551706664263 0.1514323906973004 M17.166915126144886 1.1600541397929192 C18.153597539141774 5.2864323981106285, 18.95634884186089 14.061179491877557, 16.990940518677235 24.689777068793774 M17.197113122791052 0.8475502468645573 C16.921205735877155 6.433602310717106, 16.80798659391701 10.729954820126295, 17.78433557972312 26.662768814712763 M18.18074920512736 24.34488070271909 C9.963527453690768 24.909041511304675, 3.498970268294215 26.245845245607196, -1.3022242154926063 25.534893956407906 M17.566214175336064 26.82445764709264 C13.228913042880594 26.5209165545553, 8.677422571741044 26.405157032832506, 0.08188902270048859 26.365014775283633 M1.549924559891224 26.408430509269238 C-0.6500871539860964 16.69713112935424, -0.5904541373997927 4.9091029286384575, 1.691470094025135 0.9529086872935295 M0.1172073744237423 25.71717080846429 C-0.25288173772394656 14.984254902601242, -0.18680247880518436 6.484344520419835, -0.9061124660074711 -0.9548466466367245" stroke="#000000" stroke-width="1" fill="none"></path></g><g transform="translate(1380 625) rotate(0 9.5 12.5)"><path d="M-0.4369953434914351 -0.4022256750613451 C2.6016721665859226 -1.3023210351541639, 8.252078644558788 0.1920866782590747, 19.93234670944512 -1.8919883746653794 M0.8068926444277167 -0.4851608296856284 C6.930756772495807 -0.8049621193110943, 13.813250317983329 -0.05647515341639514, 19.169247966073453 -0.23142966832965617 M20.16005413979292 0.973381944000721 C17.222696795128286 11.008975507691503, 18.830830349586904 18.456625040620565, 17.689777068793774 23.228887744247913 M19.847550246864557 0.09796639904379845 C19.691844669170678 5.785125495865941, 18.49064311105758 12.385092057287693, 19.662768814712763 25.513454999774694 M17.150160785391925 23.811271653696895 C10.320036766678095 23.393708916045725, 4.24015269242227 23.676539023257792, -0.5198244016617537 23.956307385489346 M19.921452664397655 25.441563139297067 C13.480492052622138 25.13747610799968, 7.337308807484804 25.218088546916842, 0.40795769002288584 25.925655094720423 M0.4084305092692375 24.349112935364246 C1.1578942844644189 16.916437400504947, -0.29676207806915045 11.706852991133928, 0.9529086872935295 1.8552443459630013 M-0.2828291915357113 24.552095379680395 C-0.9293449716642499 18.99339466355741, 0.7825622959062457 12.844327583909035, -0.9548466466367245 0.5975201986730099" stroke="#000000" stroke-width="1" fill="none"></path></g><g transform="translate(1415 629) rotate(0 8 11)"><path d="M-0.3387163579463959 -1.3773144304752352 C2.456550121307373 -0.15047404348850252, 7.316422313451767 0.821933678984642, 14.406746631860733 0.8666665494441985 M-0.4085564881563187 0.1697602063417435 C5.35592854321003 0.16297998666763294, 12.047241577506066 0.00662689447402956, 15.805111858248711 0.554509523510933 M16.97338194400072 -1.8801811411976814 C17.794493910595776 7.233278252929448, 16.009301182553173 13.700428748130797, 14.228887744247913 20.64030259102583 M16.0979663990438 0.9360482431948185 C16.028112144097687 4.185855233669281, 16.827700466737152 9.564785911887885, 16.513454999774694 22.986294124275446 M14.998965603113174 21.06862787604332 C10.690327847003937 22.171020162701605, 7.082623928785325 21.406477201581, -0.8788990437984467 22.264256805181503 M16.371842643618585 22.41625011265278 C10.468944945931435 22.462492002248766, 4.996586188673974 22.498735345602036, 0.779499027132988 21.997538736462594 M-0.6508870646357536 23.03050296753645 C-0.7617457496374845 16.09689019396901, 1.5209783924371003 11.99499586522579, 1.8552443459630013 -1.5001760199666023 M-0.4479046203196049 21.196072552353144 C-0.40761098377406596 15.204305608570575, -0.9318980883806944 5.637804930657147, 0.5975201986730099 0.8975101448595524" stroke="#000000" stroke-width="1" fill="none"></path></g><g transform="translate(965 437) rotate(0 36 41)"><path d="M1.1087741181254387 1.635456033051014 C23.247297079861166 2.5094709253311156, 44.64844668954611 0.9568526601791382, 73.91391818970442 -1.2550647780299187 M-0.8615585826337337 -0.2943423129618168 C24.167370004206898 1.2225258781015873, 49.21665763035417 0.7962078286707401, 71.68777558580041 0.6153021715581417 M71.83040874451399 1.660506434738636 C71.10314840875566 16.75626229867339, 73.76408500276506 37.28580264747143, 73.83885329216719 81.28726620227098 M72.53267667070031 0.8355713747441769 C71.72962481282651 22.56334486156702, 71.04566187165678 46.058295930176975, 71.9269548393786 82.03705164417624 M71.277621679008 80.07606739550829 C48.5058531537652 82.52184170305729, 20.834113620221615 83.0234684330225, 1.544786624610424 82.39515656977892 M72.10007247701287 82.5985378883779 C55.45240261629223 82.12811706021428, 38.56654687300324 81.80663452103734, -0.577087190002203 81.42425140365958 M-0.023464031517505646 81.36773461848497 C-0.8994604124873876 55.69805149510502, -2.201216079220176 33.726313012838354, 0.8000287339091301 -1.812985472381115 M0.23577043786644936 82.87480625137687 C0.5440297818928956 51.003153160214424, 0.06297058828175062 21.54394132271409, -0.2378026507794857 -0.9717557765543461" stroke="#000000" stroke-width="1" fill="none"></path></g><g transform="translate(974 445) rotate(0 11.5 11.5)"><path d="M1.635456033051014 1.098171405494213 C7.596426131203771 0.2226863172277808, 11.808319386094809 1.7864091661199928, 21.74493522197008 0.7680997177958488 M-0.2943423129618168 -0.19778897985816002 C8.510852648690342 0.684498136229813, 16.06723398119211 -0.11406594019383193, 23.61530217155814 -0.7488767169415951 M24.660506434738636 -1.6938887313008308 C21.123089381717147 10.1026398409158, 23.193418809436263 20.110037248581648, 22.287266202270985 22.626849822700024 M23.835571374744177 -0.13416972383856773 C22.489356018789113 5.699827620759606, 22.91422281432897 12.962875410914421, 23.037051644176245 23.519916031509638 M21.07606739550829 24.849248580634594 C15.184694708511232 22.43783096704632, 6.792780334502456 24.461713117696345, 0.3951565697789192 21.602779798209667 M23.598537888377905 23.02240988984704 C17.24660752080381 22.729578089825807, 11.423939695954322 22.445929479710756, -0.5757485963404179 23.039506051689386 M-0.6322653815150261 22.917768888175488 C-1.3543179401382803 12.423784695193172, 1.5978932014480234 5.415571681410075, -1.812985472381115 1.3782626911997795 M0.8748062513768673 22.772560212761164 C-0.7101875396445394 17.555379078909755, 0.08147765677422286 13.289953468739986, -0.9717557765543461 0.37690994516015053" stroke="#000000" stroke-width="1" fill="none"></path></g><g transform="translate(1011 445) rotate(0 8.5 13)"><path d="M0.9334456946700811 1.557127419486642 C3.7978802978992463 0.09838813129812471, 8.627258977666497 -1.2058188241347672, 17.652884760126472 0.8002560649067163 M-0.16812063287943602 0.4489302767440676 C3.8738978249952196 0.13659812793135648, 6.655627472139895 0.5730450390279294, 16.363454790599643 0.8261970354244114 M15.30611126869917 -1.702948622405529 C17.945000999495388 6.200853895395994, 18.816806428954006 10.954212382435799, 16.626849822700024 25.667791552841663 M16.865830276161432 -0.5067394115030766 C16.320363269373775 7.673988769948483, 17.065450773760677 15.548774415999652, 17.519916031509638 26.86675700172782 M18.571861293539406 26.916500440612435 C12.806477116793394 27.179348889701068, 10.740485258772967 26.172348812930284, -1.1876371715217828 24.966093472018837 M17.019048406369983 25.7856238855049 C10.75258938577026 25.614115168228746, 4.513500245846807 25.61236513413489, 0.03358014393597841 26.847127933613955 M-0.08223111182451248 24.622001118957996 C-1.3809364544600249 20.041909853369, 0.8030790580064058 9.12240971326828, 1.3782626911997795 -1.8816330954432487 M-0.2274397872388363 25.25403019413352 C-0.7697992946952581 18.65019057393074, -0.29910296462476255 10.237234590202569, 0.37690994516015053 -0.18003717437386513" stroke="#000000" stroke-width="1" fill="none"></path></g><g transform="translate(978 483) rotate(0 9.5 12.5)"><path d="M1.7403188806027172 0.33268557377159613 C7.018666940927506 1.713895996697247, 12.314359285309912 0.6253684483841062, 19.89440383724868 -1.8323721688240766 M0.5017456034198402 0.46202267911285166 C4.159782149456442 -0.2590332873165607, 8.710614448972047 -0.6738529749214649, 19.92339668665081 -0.7185386786237359 M17.29705137759447 0.9670478627085686 C19.574944109655917 9.126864222809672, 18.494829506613314 14.202871683984995, 18.667791552841663 24.96604721993208 M18.493260588496923 -0.8181326650083065 C19.127020227722824 8.758646516129376, 19.24594448786229 18.1832993850112, 19.86675700172782 24.22723040357232 M20.024324021860956 24.54485925026238 C15.4871288202703 26.643225908540188, 9.34791755117476 23.848319423459472, -1.155542590096593 26.003633447363974 M18.760403166152535 24.721233349107205 C12.564857047609983 24.456025048568844, 6.672763420827685 25.041788628175855, 0.946790043450892 24.90218741800636 M-1.3779988810420036 23.6160132214427 C1.6532454332336783 18.329358773306012, -1.7339522996917367 11.436922769993542, -1.8816330954432487 -0.3111501410603523 M-0.7459698058664799 24.29150101915002 C-0.1730061722919345 16.67277125455439, -1.190457339398563 9.1980577558279, -0.18003717437386513 -0.5744442008435726" stroke="#000000" stroke-width="1" fill="none"></path></g><g transform="translate(1013 487) rotate(0 8 11)"><path d="M0.28015627264976506 0.22343707680702218 C7.639499378204347 -1.1506049913167955, 12.831209427118303 0.6066290098428727, 14.456949752569198 -1.378493732213974 M0.3890717297792434 0.08146817386150362 C4.07927276790142 0.40773721456527706, 8.05900322496891 0.6930926871299745, 15.394914796948433 -0.06783650219440462 M16.96704786270857 0.3673808053135872 C17.652525531724095 7.713823280483485, 15.440522062256932 16.520905709266664, 15.96604721993208 23.065353341400623 M15.181867334991693 -0.0818726159632206 C15.89743750013411 8.475308668613435, 16.490398692265153 17.7432710506022, 15.227230403572321 21.638810839504004 M15.616723579168319 23.263890033960344 C13.974975383281707 22.402384120821953, 8.360516005754471 21.113170368075373, 0.8451650083065032 22.160115963220598 M15.76524913609028 21.54104821383953 C9.780669626593589 21.499047971963883, 4.516283598542213 22.756943727731706, -0.08236849009990688 21.990614387393 M-1.3839867785573006 23.5742122605443 C0.8090741562098265 14.282506447285414, 1.387308113500476 8.309350743889809, -0.3111501410603523 0.4715408757328987 M-0.7084989808499813 22.045695390552282 C-0.18776589758694173 12.503670470416544, 0.4269466983526945 4.770815319567916, -0.5744442008435726 -0.9960189200937748" stroke="#000000" stroke-width="1" fill="none"></path></g><g transform="translate(1125 454) rotate(0 36 41)"><path d="M0.2792963460087776 1.9139181897044182 C24.29835228174925 0.6420293951034546, 52.048311842978 -2.054883131980896, 70.27688283473253 -0.5886846259236336 M0.1018352173268795 -0.3122244141995907 C20.79122151657939 -1.0990412737429143, 41.32383520230651 -1.106521060615778, 71.915204372257 0.830253217369318 M72.36738080531359 1.8388532921671867 C70.58905726708471 17.281906024366616, 70.96958261765539 35.276159623265265, 73.06535334140062 83.67114274948835 M71.91812738403678 -0.07304516062140465 C71.62152532674372 24.019724296033385, 72.4512306842953 46.226846932619814, 71.638810839504 81.03803369775414 M73.57986254245043 83.54478662461042 C44.13786167949438 80.43030540883541, 14.26904959827661 82.88398187100887, 0.2001449540257454 83.19707577675581 M71.42631026729941 81.4229128099978 C49.66290019676089 81.82823027417064, 29.473918684571977 81.68576360985637, -0.011732015758752823 81.68386730924249 M1.5742122605443 82.80002873390913 C-1.2480059311538936 59.11541024968028, -1.3166535542160274 33.16314497590065, 0.4715408757328987 1.7496125027537346 M0.04569539055228233 81.76219734922051 C-0.3600605357438327 59.64191620051861, 0.4316580664366483 35.95556830987334, -0.9960189200937748 -0.8292918466031551" stroke="#000000" stroke-width="1" fill="none"></path></g><g transform="translate(1134 462) rotate(0 11.5 11.5)"><path d="M1.9139181897044182 -1.2550647780299187 C9.774801520630717 0.9093586436286568, 16.084590796381235 -1.7552362450584769, 22.411315374076366 -0.39557795971632004 M-0.3122244141995907 0.6153021715581417 C7.365875796601177 0.948574412278831, 15.473148523271085 -0.10821772772818802, 23.830253217369318 -0.8469443656504154 M24.838853292167187 -0.7127337977290154 C22.73806032691151 4.609400637075305, 23.077257724143564 10.948571509867907, 24.671142749488354 22.731660552322865 M22.926954839378595 0.037051644176244736 C23.331745518557728 6.601256355270744, 22.03905989062041 11.107809546589852, 22.038033697754145 23.924624290317297 M24.544786624610424 23.39515656977892 C13.462808613851665 21.96532357122749, 7.7765138916671255 23.381829146407544, 1.1970757767558098 23.04481977969408 M22.422912809997797 22.424251403659582 C16.71958259679377 23.864672459848226, 10.257192477583885 22.856319345720113, -0.31613269075751305 22.958884444087744 M0.8000287339091301 21.187014527618885 C1.537421170733869 15.803065617755056, -0.15199166152626276 12.840938302129507, 1.7496125027537346 -0.4548795744776726 M-0.2378026507794857 22.028244223445654 C0.5398647107556462 17.63569337911904, -0.4114894352480769 11.635442186892032, -0.8292918466031551 -0.7467273809015751" stroke="#000000" stroke-width="1" fill="none"></path></g><g transform="translate(1171 462) rotate(0 8.5 13)"><path d="M-1.066805061325431 0.6528847601264716 C6.197922104597092 -1.802173934020102, 9.330682488903404 -0.6630649781599642, 16.663758734241128 0.8978605534881352 M0.5230068458244205 -0.6365452094003559 C6.752974461205304 -0.5898248778283597, 11.78147856798023 0.7587933851778507, 16.280097289197148 -0.7237531645223498 M16.287266202270985 -0.37315017729997635 C16.71555105753243 9.023209441453218, 18.11311284609139 19.785467192530632, 16.731660552322865 24.986521176993847 M17.037051644176245 0.5199160315096378 C17.84547012157738 4.900085474550725, 16.617523959353566 10.383743839710952, 17.924624290317297 26.53911790624261 M17.33588308431208 24.812362828478218 C11.273324669152498 27.029294684417547, 7.784585605189204 27.148821273334324, 0.038096812739968344 25.5712477710098 M16.510613693110646 26.03358014393598 C13.245973519422114 25.814378656968476, 7.787718958221374 25.63318239055574, -0.03494822252541785 25.41435047555715 M-1.812985472381115 27.37826269119978 C-2.086280689314008 19.68803267106414, 0.2668932818621397 15.747978127002716, -0.4548795744776726 -1.4919396117329597 M-0.9717557765543461 26.37690994516015 C-0.19191797591745852 19.467653149366377, -1.0078997216373682 13.254902853816747, -0.7467273809015751 0.722596500068903" stroke="#000000" stroke-width="1" fill="none"></path></g><g transform="translate(1138 500) rotate(0 9.5 12.5)"><path d="M0.7296947319060565 0.8944038372486829 C4.132959359884262 -1.5177301530912517, 11.371412662789227 -0.25656790781766176, 20.00349120683968 0.9240453582257033 M-0.7114328810945153 0.9233966866508125 C5.174948234297336 -0.19746325895190237, 12.575714382342994 -0.9215045599639415, 18.191099404357374 0.45934773478657 M18.626849822700024 -0.33220844715833664 C19.195903881452978 9.024579348042607, 20.900999411009252 15.650112565606833, 17.986521176993847 23.363734669983387 M19.519916031509638 0.8667570017278194 C18.20896911341697 6.934129299595952, 18.019772407598794 15.515261210501194, 19.53911790624261 24.7604522369802 M17.672640808299185 23.844457409903406 C12.802764032036064 25.227677580453452, 5.735483157262205 25.080118664838373, -0.4791936676949262 24.44246669821441 M19.037530749104917 25.946790043450893 C14.292197910137475 24.879462351724506, 9.47969492804259 24.851547988578677, -0.6545494684949518 24.342606280185283 M1.3782626911997795 23.11836690455675 C-0.4111537327989936 16.003775550052524, 1.6496089110150933 5.609589774161577, -1.4919396117329597 -1.4169979616999626 M0.37690994516015053 24.819962825626135 C-0.5149935381487012 16.38974260352552, -0.7698411839082837 9.024795666337011, 0.722596500068903 0.455654826015234" stroke="#000000" stroke-width="1" fill="none"></path></g><g transform="translate(1173 504) rotate(0 8 11)"><path d="M0.7531821787357331 -1.5430502474308014 C4.952640819549561 -0.5323956781625748, 12.345806735754014 0.783597249388695, 16.778143459558486 0.16293634772300725 M0.7775972098112107 -0.6050852030515671 C4.23260443508625 0.7840228486061096, 7.923326382040978 -0.5613591742515565, 16.38681914508343 0.14695232212543485 M15.667791552841663 -0.033952780067920685 C16.98695262365043 10.29388137087226, 15.653259834572673 16.23199841976166, 14.363734669983387 21.83625476807356 M16.86675700172782 -0.7727695964276791 C15.646962201222777 5.477334344387055, 16.93277565203607 13.41771919950843, 15.7604522369802 22.789931271225214 M15.026911503076553 22.845165008306502 C10.124286663532256 22.845883005261424, 3.964197224378585 21.48469087421894, -0.4695017278194429 21.082096427679062 M16.797296878695487 21.917631509900094 C12.113953891396523 21.753414815664293, 8.213786563277244 21.4551214158535, -0.5535947114229203 22.62968490421772 M-1.8816330954432487 21.688849858939648 C0.6709692776948214 16.269580895453693, -0.2554511725157499 5.547997173666953, -1.4169979616999626 0.09139078110456467 M-0.18003717437386513 21.425555799156427 C-0.7822326492518187 15.093873985111713, -0.532941110059619 10.56892816349864, 0.455654826015234 0.9141065813601017" stroke="#000000" stroke-width="1" fill="none"></path></g><g transform="translate(725 13.5) rotate(0 85.5 47.5)"><path d="M0.0943107083439827 0.47220247238874435 C61.572528225556034 -2.3876577188447117, 118.16885639950637 -1.6132415105775, 171.23967856913808 1.52421086281538 M0.18893786892294884 0.21987077966332436 C43.693284246698035 1.0342761260643603, 89.32772324532273 0.5932559949532152, 171.22321614250544 0.8664148785173893 M171.40720290690663 0.09151928871870041 C172.68831895049664 35.5609829146415, 171.05967376884075 70.49912787601352, 170.18703884631398 96.55215042084455 M171.61438378319147 0.9195984341204166 C170.20147517342124 27.105698728933934, 169.2941886486486 55.27944321930409, 170.69440409168604 95.57990977540612 M171.5402931645513 95.49134605377913 C107.36181841753424 93.97788110930473, 39.04998948350547 96.13433161932976, 0.879646010696888 96.3925823494792 M170.2705387733877 95.17713019624352 C108.47254374735058 94.90718368496746, 45.832717514038094 94.64514152016491, -0.6463014222681522 95.38404569402337 M1.7291771844029427 96.11186831444502 C-1.4846977507695556 63.20869208686054, 0.5966637814417481 33.54909953847528, -1.8140917345881462 -0.02212030440568924 M-0.3373481370508671 94.86807641759515 C-0.21273018289357415 65.02332751266658, -0.29228080678731194 35.43892788141966, -0.9225576259195805 -0.7791607640683651" stroke="#000000" stroke-width="1" fill="none"></path></g><g transform="translate(762 53.5) rotate(0 46 13)"><text x="0" y="18" font-family="Virgil, Segoe UI Emoji" font-size="20px" fill="#000000" text-anchor="start" style="white-space: pre;" direction="ltr">mein DNS</text></g><g><g transform="translate(489.4229801732796 291.5) rotate(0 110.86384027632275 -111.33927692951792)"><path d="M0.1384716197848319 0.16355863362550727 C37.10585138717463 -36.974581418044146, 183.83578357891096 -185.72532101276903, 220.71582356358593 -222.84211249266133 M-1.2479695091675969 -0.7961770290601999 C36.19127411245166 -37.76420957093801, 186.00600491469643 -184.7712213126627, 222.97565006181313 -221.5172165677821" stroke="#000000" stroke-width="1" fill="none"></path></g><g transform="translate(489.4229801732796 291.5) rotate(0 110.86384027632275 -111.33927692951792)"><path d="M210.388147588673 -195.84870957240867 C212.13541130235794 -200.36477744883567, 215.33517503243775 -206.5345161047351, 222.65005628481222 -222.2544261784231 M210.91836015120424 -193.95810362726854 C213.7632255998049 -200.33328281806178, 216.0122383499672 -205.2382505275202, 223.4685492151947 -220.78218368524068" stroke="#000000" stroke-width="1" fill="none"></path></g><g transform="translate(489.4229801732796 291.5) rotate(0 110.86384027632275 -111.33927692951792)"><path d="M195.97483075667503 -210.45611523824417 C200.73711997201343 -211.93155207009727, 206.95352480504627 -215.04402772035445, 222.65005628481222 -222.2544261784231 M196.50504331920627 -208.56550929310404 C202.23037710799437 -211.78079748025235, 207.47367337194055 -213.65116083915186, 223.4685492151947 -220.78218368524068" stroke="#000000" stroke-width="1" fill="none"></path></g></g><g transform="translate(497 144.5) rotate(0 29.5 13)"><text x="0" y="18" font-family="Virgil, Segoe UI Emoji" font-size="20px" fill="#000000" text-anchor="start" style="white-space: pre;" direction="ltr">bild.de</text></g><g><g transform="translate(713.5525055158431 122.39081963151199) rotate(0 -90.8734649241257 90.34796930757318)"><path d="M-0.8704925939440726 -0.34800227433443065 C-31.333875906770338 29.673821871063257, -152.53616532834823 150.75202321301472, -182.62028991314716 180.77190796632257 M0.8733600648958237 -1.5763074136991055 C-29.223601543340123 28.587619011063644, -149.8726748315023 151.92179646222178, -180.337672185359 182.2722460288455" stroke="#000000" stroke-width="1" fill="none"></path></g><g transform="translate(713.5525055158431 122.39081963151199) rotate(0 -90.8734649241257 90.34796930757318)"><path d="M-168.38538207388615 153.65231678237325 C-171.70432203231934 164.17702450172922, -177.2987873954221 172.64145108488316, -179.96585059559106 182.47220571673412 M-167.52459871671294 154.5257508901239 C-172.1168247856581 164.2211231741349, -175.3454424189392 171.71458345030968, -179.39117513617634 182.63130712470908" stroke="#000000" stroke-width="1" fill="none"></path></g><g transform="translate(713.5525055158431 122.39081963151199) rotate(0 -90.8734649241257 90.34796930757318)"><path d="M-153.7969487596312 168.08483616816918 C-161.76403253855307 173.98151647009095, -171.92955245315443 177.92374166212153, -179.96585059559106 182.47220571673412 M-152.936165402458 168.95827027591983 C-162.1894820212867 174.24679310220372, -169.9799713698614 177.22713668186836, -179.39117513617634 182.63130712470908" stroke="#000000" stroke-width="1" fill="none"></path></g></g><g transform="translate(636 224.5) rotate(0 76.5 13)"><text x="0" y="18" font-family="Virgil, Segoe UI Emoji" font-size="20px" fill="#000000" text-anchor="start" style="white-space: pre;" direction="ltr">145.243.248.20</text></g><g transform="translate(264.5 220.5) rotate(0 29.5 13)"><text x="0" y="18" font-family="Virgil, Segoe UI Emoji" font-size="20px" fill="#000000" text-anchor="start" style="white-space: pre;" direction="ltr">bild.de</text></g><g><g transform="translate(348 350.5) rotate(0 -69.2196628557425 -48.1600788190961)"><path d="M-0.8393374845385551 1.140283839404583 C-24.110682321091492 -15.179654740790527, -115.8369168365995 -81.1792861615618, -138.9587881013751 -97.46044147759676 M0.920871606739238 0.6933289097528905 C-22.475950557816155 -15.502709676843756, -115.85491704476686 -79.60733460815933, -139.36019731822424 -96.16474800211377" stroke="#000000" stroke-width="1" fill="none"></path></g><g transform="translate(348 350.5) rotate(0 -69.2196628557425 -48.1600788190961)"><path d="M-108.45096214099705 -86.78140681765588 C-121.46864954438381 -90.72488705875277, -130.26620672106333 -93.24214611402306, -138.2015481642168 -95.01143490922637 M-109.55758672564208 -88.65673221803816 C-119.03565580104491 -89.60913459981857, -127.24008700441769 -91.75275967539736, -139.06271784144454 -96.53292436924762" stroke="#000000" stroke-width="1" fill="none"></path></g><g transform="translate(348 350.5) rotate(0 -69.2196628557425 -48.1600788190961)"><path d="M-120.15375517357498 -69.92422325626328 C-129.07240541340877 -79.78318623255217, -133.70642000837034 -88.29778296356477, -138.2015481642168 -95.01143490922637 M-121.26037975822001 -71.79954865664556 C-127.46743805875674 -77.53030708200885, -132.40895106266558 -84.37397349652737, -139.06271784144454 -96.53292436924762" stroke="#000000" stroke-width="1" fill="none"></path></g></g><g transform="translate(686.5 358.5) rotate(0 76.5 13)"><text x="0" y="18" font-family="Virgil, Segoe UI Emoji" font-size="20px" fill="#000000" text-anchor="start" style="white-space: pre;" direction="ltr">145.243.248.20</text></g><g><g transform="translate(934 398.5) rotate(0 33.21143177300695 -62.718839251371094)"><path d="M-0.5821823045611382 -0.9220234706997872 C10.555933816730976 -21.71873257905245, 55.75041514188052 -104.11068628579379, 67.00504585057497 -125.03174689561129 M1.313033256204799 1.2083102618437263 C12.365639052363111 -19.887303380193188, 55.69076422241517 -105.5502197976131, 66.58464945849963 -126.64598876458592" stroke="#000000" stroke-width="1" fill="none"></path></g><g transform="translate(934 398.5) rotate(0 33.21143177300695 -62.718839251371094)"><path d="M61.3675515793618 -95.1975229861622 C65.73861446391467 -104.64830006452482, 64.53575119544453 -117.0857513003661, 67.63051398840733 -125.71926558983512 M63.375849399006015 -96.65347094036986 C63.86739120232889 -107.72448735539398, 65.943548382726 -120.0985940152115, 65.75051961463876 -126.92768177238293" stroke="#000000" stroke-width="1" fill="none"></path></g><g transform="translate(934 398.5) rotate(0 33.21143177300695 -62.718839251371094)"><path d="M43.09063398190891 -104.52888331152508 C53.19380897153355 -110.95445004154281, 57.742614181149776 -120.45536174576553, 67.63051398840733 -125.71926558983512 M45.09893180155312 -105.98483126573274 C52.778273251069834 -113.34415063526389, 62.03211262924792 -122.05366021347226, 65.75051961463876 -126.92768177238293" stroke="#000000" stroke-width="1" fill="none"></path></g></g><g><g transform="translate(1048 239.5) rotate(0 36.60089134424925 3.370679992539806)"><path d="M-0.5349299266934394 -0.0024914190173148665 C11.713809776802856 1.1117360507448515, 61.46251972566048 5.48967735717694, 73.73671261519193 6.85464792996645 M1.3850931324530396 -1.0494033593405039 C13.431399891472733 0.15416128024769304, 60.29172371267962 6.01533475791725, 72.6504412745405 7.79076334442012" stroke="#000000" stroke-width="1" fill="none"></path></g><g transform="translate(1048 239.5) rotate(0 36.60089134424925 3.370679992539806)"><path d="M43.35034346615862 13.813187805020235 C50.821598639115955 10.829742524718036, 62.42787652888619 9.41584516825055, 70.73378161390312 8.71228471751325 M43.72539536317777 13.943308816307209 C49.45117011157554 13.702878635790642, 57.01995393834349 11.751269415351455, 72.12774284605868 8.614922098619864" stroke="#000000" stroke-width="1" fill="none"></path></g><g transform="translate(1048 239.5) rotate(0 36.60089134424925 3.370679992539806)"><path d="M46.05108975859843 -6.529525186361034 C52.685841428025874 -3.0080954949972867, 63.42691849968817 2.094921370336446, 70.73378161390312 8.71228471751325 M46.42614165561758 -6.39940417507406 C51.62127885562684 -1.801851055507775, 58.54752805385599 1.0862751601352238, 72.12774284605868 8.614922098619864" stroke="#000000" stroke-width="1" fill="none"></path></g></g><g><g transform="translate(1109 269.5) rotate(0 -30.74527743698559 -4.127437360584736)"><path d="M-0.37741259783506387 0.31648990362882623 C-11.02334392120441 -1.234420457979043, -52.921796759466325 -7.051376199225585, -63.11586193293333 -8.571364624798298 M1.6253070589620622 -0.5629568423051388 C-8.732759497988347 -2.0237273955562465, -50.37435892713877 -6.109771915596599, -60.98973491135053 -7.33390580159612" stroke="#000000" stroke-width="1" fill="none"></path></g><g transform="translate(1109 269.5) rotate(0 -30.74527743698559 -4.127437360584736)"><path d="M-31.345230582615628 -16.41856869939796 C-43.35930952720167 -11.26183480106016, -54.32462243459216 -7.539960666475542, -61.3006103793066 -5.603619508864358 M-31.431621655335917 -14.602039980479399 C-37.914653233939816 -13.180509424338899, -45.53650670388531 -10.991162962821644, -61.88291388469748 -7.976128232153132" stroke="#000000" stroke-width="1" fill="none"></path></g><g transform="translate(1109 269.5) rotate(0 -30.74527743698559 -4.127437360584736)"><path d="M-33.51324777402016 3.9877955981346576 C-44.86449882355692 1.73750170963888, -55.042148319813876 -1.9544705842797363, -61.3006103793066 -5.603619508864358 M-33.59963884674045 5.8043243170532195 C-39.639998951079875 2.503370835984685, -46.757827832627285 -0.05139146996677102, -61.88291388469748 -7.976128232153132" stroke="#000000" stroke-width="1" fill="none"></path></g></g><g><g transform="translate(1022 285.5) rotate(0 -38.216967110796816 62.664087478816526)"><path d="M-0.1152188703417778 -0.9300902679562568 C-12.569317206243674 20.155804078280926, -63.126645064850656 105.24940792769193, -75.5873245164752 126.25826522558927 M-1.6348475066106767 1.1960083960276098 C-14.135368757673227 21.92136502224021, -64.08175259284985 103.47392387795263, -76.31871535125188 124.27127972024493" stroke="#000000" stroke-width="1" fill="none"></path></g><g transform="translate(1022 285.5) rotate(0 -38.216967110796816 62.664087478816526)"><path d="M-72.12086715243285 95.5148790204079 C-71.51450892107681 103.40578944135962, -74.71767829634767 108.4483904147243, -76.82446534427814 123.21336634981446 M-70.34344947404688 95.24363238970946 C-73.91599341174015 105.58026273425, -75.79338455717523 117.48733033428948, -76.70138829070143 124.26581955107861" stroke="#000000" stroke-width="1" fill="none"></path></g><g transform="translate(1022 285.5) rotate(0 -38.216967110796816 62.664087478816526)"><path d="M-54.539280828049954 106.09825394073042 C-57.9207034459916 111.55815768808075, -65.13432862645425 114.18663307547001, -76.82446534427814 123.21336634981446 M-52.76186314966398 105.82700731003197 C-62.79331227384224 112.19719102174416, -71.23188415217959 120.15470399484991, -76.70138829070143 124.26581955107861" stroke="#000000" stroke-width="1" fill="none"></path></g></g><g><g transform="translate(918 437.5) rotate(0 -125.7059622956952 -4.245214660465706)"><path d="M-0.09462522715330124 -0.45433991700410836 C-41.73225627789895 -1.809457126756509, -208.64596841384966 -6.674638270835081, -250.24213370531797 -8.036089403927326 M-1.6034422007482498 -1.738472318770364 C-43.38385084194751 -2.9006583154418815, -209.87372070007336 -5.535246574801082, -251.3172993642371 -6.517611089767888" stroke="#000000" stroke-width="1" fill="none"></path></g><g transform="translate(918 437.5) rotate(0 -125.7059622956952 -4.245214660465706)"><path d="M-223.69032767213693 -16.633886396763064 C-230.51603947403038 -13.128580404149993, -239.0247556320651 -12.245736284754301, -250.6013601330202 -7.414981018425896 M-223.2170472236704 -16.91335846844051 C-230.53804523076107 -14.635117361396084, -237.09003462850703 -11.493289716692544, -251.4866134245973 -7.476618736656382" stroke="#000000" stroke-width="1" fill="none"></path></g><g transform="translate(918 437.5) rotate(0 -125.7059622956952 -4.245214660465706)"><path d="M-224.08775461905384 3.8834734287043418 C-230.82420419739537 1.9457473150963018, -239.22748124438624 -2.614754060188524, -250.6013601330202 -7.414981018425896 M-223.6144741705873 3.6040013570268954 C-230.8927607843175 0.6972014356556628, -237.3442771972508 -1.347937727331563, -251.4866134245973 -7.476618736656382" stroke="#000000" stroke-width="1" fill="none"></path></g></g><g><g transform="translate(546 420.5) rotate(0 -17.80836641927715 2.0587340025371077)"><path d="M-0.028469355404376895 0.9557452753186226 C-5.7866632456580795 1.7451355054974558, -28.70894939055045 3.5373020723462107, -34.419815094769 3.7055604055523874 M-1.5025544963311406 0.4119075995218009 C-7.466821467780197 0.9475954487454147, -29.96976668954206 1.565462448550388, -35.58826348314993 1.9534048696886748" stroke="#000000" stroke-width="1" fill="none"></path></g><g transform="translate(546 420.5) rotate(0 -17.80836641927715 2.0587340025371077)"><path d="M-18.47885262044864 -5.214937056393315 C-23.785929452058582 -2.9970446501973615, -31.155708375913377 -0.29797847488504936, -35.745565171863205 3.235022806017761 M-19.690190215436854 -4.291153991549311 C-25.689985481587 -1.5849370315675395, -29.60077045542066 0.5545697848648183, -35.2506203059314 2.2512139739457773" stroke="#000000" stroke-width="1" fill="none"></path></g><g transform="translate(546 420.5) rotate(0 -17.80836641927715 2.0587340025371077)"><path d="M-17.939748421556697 6.446472744566959 C-23.314197866658056 5.040115734864097, -30.851519065425766 4.115060393852912, -35.745565171863205 3.2350228060177613 M-19.151086016544912 7.370255809410964 C-25.389207392181937 6.203832649170963, -29.479249461409925 4.465813648850948, -35.2506203059314 2.2512139739457777" stroke="#000000" stroke-width="1" fill="none"></path></g></g><g transform="translate(1174 181.5) rotate(0 24.5 24.5)"><path d="M37.038420635941364 3.028550511033071 C41.80726391709494 5.015320514881251, 46.04886540940265 10.313614136281654, 47.88922243169523 15.100037390960031 C49.72957945398781 19.886460645638408, 49.905295385367694 26.558897175222317, 48.08056276969682 31.747090039103337 C46.255830154025944 36.93528290298436, 41.39494153048779 43.336410443503574, 36.94082673766997 46.229194574246165 C32.48671194485215 49.121978704988756, 26.45326799122588 50.10530595320749, 21.35587401278991 49.1037948235589 C16.258480034353944 48.10228369391031, 9.849639637248266 44.30885132504474, 6.356462867054162 40.220127796354625 C2.863286096860058 36.13140426766451, 0.6217034232313067 29.663908088488164, 0.3968133916252867 24.571453651418192 C0.17192336001926675 19.47899921434822, 1.68528017387831 13.555068263475174, 5.007122677418042 9.665401173934788 C8.328965180957775 5.775734084394401, 14.583337711109404 2.1252302868877146, 20.32786841286368 1.2334511141758746 C26.072399114617955 0.34167194146403457, 36.197075436148 3.4855157061183757, 39.47430688794369 4.314726137663747 C42.75153833973938 5.143936569209119, 40.28627620938963 5.925784331609266, 39.99125712363784 6.208713703448105 M14.115326032750493 3.19047031314404 C18.541061056554767 0.6410756665543906, 24.797941612253602 0.6768735785433642, 29.687195563165922 1.7935801356690746 C34.57644951407824 2.9102866927947852, 40.38932639864207 5.866943311047576, 43.45084973822442 9.890709655898302 C46.51237307780677 13.914476000749028, 48.01103031601876 20.886074146004724, 48.05633560066002 25.93617820477343 C48.10164088530128 30.986282263542137, 46.892363965656266 36.42512165594152, 43.72268144607195 40.19133400851054 C40.55299892648764 43.95754636107956, 34.61648120113969 47.70501567232395, 29.038240483154137 48.53345232018756 C23.459999765168583 49.36188896805116, 15.140072161864666 47.98186507869767, 10.253237138158616 45.16195389569216 C5.3664021144525655 42.34204271268664, 1.095732848772486 36.75889914937773, -0.2827696590821631 31.613985222154465 C-1.6612721669368122 26.469071294931197, -0.2730041675108814 19.082520164494834, 1.982222091030721 14.292470332352558 C4.237448349572324 9.502420500210281, 11.442208092636829 4.485736693842468, 13.24858789216745 2.8736862293008087 C15.05496769169807 1.2616357647591496, 12.771149172774514 4.251637267931325, 12.820500888214442 4.620167545102603" stroke="#000000" stroke-width="1" fill="none"></path></g><g transform="translate(186 311.5) rotate(0 43.5 13)"><text x="0" y="18" font-family="Virgil, Segoe UI Emoji" font-size="20px" fill="#000000" text-anchor="start" style="white-space: pre;" direction="ltr">feed.html</text></g><g transform="translate(507 86.5) rotate(0 34.5 13)"><text x="0" y="18" font-family="Virgil, Segoe UI Emoji" font-size="20px" fill="#000000" text-anchor="start" style="white-space: pre;" direction="ltr">ioam.de</text></g><g transform="translate(1022.5 10) rotate(0 85.5 47.5)"><path d="M-0.04180984944105148 1.7967576310038567 C63.74718114770951 -1.3830603327229622, 127.79808162972336 -0.5088134970143441, 170.64793819934133 1.6248204037547112 M0.14168557152152061 -0.6957770846784115 C48.92816294170917 -0.39181883867830036, 97.94275539368392 -0.6518582874163985, 171.01089045032862 -0.3070721887052059 M172.04220814257863 0.42925041168928146 C170.8462008720264 21.846698315814137, 170.9781986957416 43.53824747726321, 170.75241059809926 95.61198084801435 M171.30089231953028 0.3731560446321964 C171.64035545606168 32.348499501124024, 170.69509362000974 66.520105317235, 171.50526794418695 94.78893384709954 M171.20545739680531 96.63400118798018 C124.97130484245719 93.91022889453917, 82.26322192922235 93.8779358132556, -1.7560244128108025 93.94556920975447 M170.24683841690424 95.13722238317132 C106.12683736793699 94.79591808643193, 42.38021507263184 94.12086246337742, -0.7601240016520023 95.0543162561953 M-1.2461538836359978 93.90588300675154 C2.795050504244864 66.26306219212711, -0.47280823942273864 39.9036199785769, 1.3113538697361946 0.36264603585004807 M-0.8628833629190922 94.75718853250146 C-0.2558322386816144 59.81565175764262, 0.3573547167703509 26.35089492052792, 0.11840113624930382 -0.6587521098554134" stroke="#000000" stroke-width="1" fill="none"></path></g><g transform="translate(1046.5 35) rotate(0 60 13)"><text x="0" y="18" font-family="Virgil, Segoe UI Emoji" font-size="20px" fill="#000000" text-anchor="start" style="white-space: pre;" direction="ltr">DNS Google</text></g><g><g transform="translate(905 39.5) rotate(0 52.32920556728732 1.6398266286450252)"><path d="M-0.021852810680866197 1.1429756239056588 C17.490628449618818 1.5592248832186064, 86.44167858809233 2.6337924713889755, 103.97634155005217 2.582962568104267 M-1.4924642656277864 0.6974338811170311 C16.47854836751707 0.7515817497701696, 88.48244097788819 0.6251103070906053, 106.15087540020235 0.7664431675802916" stroke="#000000" stroke-width="1" fill="none"></path></g><g transform="translate(905 39.5) rotate(0 52.32920556728732 1.6398266286450252)"><path d="M79.8402727163922 9.252600546106423 C84.78131929686984 9.149423108405536, 87.75470287688161 5.572548161102218, 106.48163771946915 -1.005643504904583 M78.09737119372599 11.653199925198878 C86.15065605460923 7.898740477045637, 93.91837070427927 6.015043319302167, 105.78075878267177 0.867198348743841" stroke="#000000" stroke-width="1" fill="none"></path></g><g transform="translate(905 39.5) rotate(0 52.32920556728732 1.6398266286450252)"><path d="M79.8900051530832 -11.268547790928237 C84.83530046035051 -7.094008589306093, 87.79831709018676 -6.393157840673684, 106.48163771946915 -1.005643504904583 M78.14710363041698 -8.867948411835782 C86.17682519996028 -6.872480804210427, 93.93060424277317 -3.005913657408316, 105.78075878267177 0.867198348743841" stroke="#000000" stroke-width="1" fill="none"></path></g></g><g><g transform="translate(1002 81.5) rotate(0 -45.5555661173305 1.3512290054839013)"><path d="M0.3690360143780709 0.9374500438570974 C-14.779069177806376 1.1183847750226654, -75.2826744005084 0.6573463921745617, -90.34893297404051 0.8564100906252861 M-0.8963588074129075 0.3840073715429755 C-16.280240514306353 0.7768005847713602, -76.49469732972794 2.318530036288624, -91.48016824903898 2.3184506394248454" stroke="#000000" stroke-width="1" fill="none"></path></g><g transform="translate(1002 81.5) rotate(0 -45.5555661173305 1.3512290054839013)"><path d="M-61.88153916237613 -8.938814937191946 C-73.3754509735157 -4.635714273511917, -80.92153550032035 0.8843206146776836, -90.92174430522137 2.000642659543082 M-63.42368523044249 -7.871666568386299 C-70.40426409878151 -5.378534640078762, -77.55105524572879 -3.5244867240380424, -91.29008692461066 1.7340621188562362" stroke="#000000" stroke-width="1" fill="none"></path></g><g transform="translate(1002 81.5) rotate(0 -45.5555661173305 1.3512290054839013)"><path d="M-61.578552323770396 11.580156805112082 C-73.13779602886004 8.805660081092643, -80.78840339433613 7.24716580612171, -90.92174430522137 2.000642659543082 M-63.120698391836754 12.64730517391773 C-70.36430064784291 9.919213678664036, -77.58821714193526 6.550154129153646, -91.29008692461066 1.7340621188562362" stroke="#000000" stroke-width="1" fill="none"></path></g></g><g transform="translate(683 177.5) rotate(0 75 13)"><text x="0" y="18" font-family="Virgil, Segoe UI Emoji" font-size="20px" fill="#000000" text-anchor="start" style="white-space: pre;" direction="ltr">123.123.123.123</text></g></svg>