<svg version="1.1" xmlns="http://www.w3.org/2000/svg" viewBox="0 0 359 649">
  <defs>
    <style>
      @font-face {
        font-family: "Virgil";
        src: url("https://excalidraw.com/FG_Virgil.ttf");
      }
      @font-face {
        font-family: "Cascadia";
        src: url("https://excalidraw.com/Cascadia.ttf");
      }
    </style>
  </defs>
  <rect x="0" y="0" width="359" height="649" fill="#e3fafc"></rect><g transform="translate(10 10)"><path d="M-1.2844668626208557 1.334938428666402 C85.93365508371639 -1.0896944632516397, 172.03637711157066 -0.8395068407953276, 338.1278748446036 1.1678686584865106 M-0.6532090171198598 0.14969620724257154 C102.60367877834601 0.867346418772424, 203.85015349200114 1.888920247844637, 339.23335309245493 -0.4888869066882498 M339.6816634528339 0.576531744748354 C338.1257499981634 146.383403742034, 339.29644971377775 293.5733331428841, 339.06917763873935 629.0737995870411 M338.92204648293557 0.305777781829238 C339.56010051545877 249.94967817580329, 339.1561721282937 500.339470522292, 339.3418897394091 629.1596110161394 M338.94081597412946 629.7307960032 C256.95808580719483 629.3132229647017, 173.5763082416015 627.5984231914397, 0.4067520243195757 629.00202193024 M339.34104743988416 629.0746714484175 C270.14389935474196 629.7253160630768, 202.30539641615815 628.7867143369076, 0.512557307981015 629.265859951575 M-0.07703048065304757 629.0616683967412 C0.5312328048832715 486.7344450789504, -0.36688309229537847 345.026460805349, 0.6868493668735027 -0.2942116491496563 M-0.20510641299188137 629.1083384688943 C-1.5574281488098205 463.16668949136505, -1.5037187491096558 297.11495102103794, 0.38374395407736306 -0.29559273160994054" style="stroke: rgb(0, 0, 0); stroke-width: 1px; fill: none;"></path></g><g transform="translate(86 25)"><path d="M1.0870033178890615 1.1643738228910536 C75.3488517602609 0.7848306385187516, 152.5949891526724 0.9633657681296716, 247.91047902896017 -1.1341178635691553 M0.21667714506602734 -0.18344251779411286 C57.48738668936064 -0.5085754655898462, 113.39907117482194 -0.9259048803899657, 246.59190870029326 0.5312462559207634 M248.38977926597 -1.9650523625314236 C248.290378276892 16.091629588976502, 247.2551592035964 34.069946214556694, 247.1143222413957 44.44891441240907 M247.7122481483966 0.9303712528198957 C246.55217482123524 13.165063764154914, 246.380089953281 25.215885959938173, 247.0025731343776 46.207769541069865 M246.83240700430892 47.57407619636193 C192.35443069525752 48.07567267638136, 134.7969771551911 47.45280209105698, 0.5731943450492293 45.304175471345815 M247.60298784866242 45.60618838408892 C168.51790046274994 45.01121485992375, 90.20861323821899 45.442365008987764, -0.4717607059156373 46.0579951462712 M1.8662986122071743 46.10030985251069 C-2.0148120092228057 35.98196644298732, 0.7474924160167575 24.99741591066122, -1.1025254167616367 -0.004392500966787338 M0.09700674004852772 46.612348882481456 C0.7210337601229548 31.54814263060689, -0.46022545475512744 19.254533836618066, -0.1597225647419691 0.03207734040915966" style="stroke: rgb(0, 0, 0); stroke-width: 1px; fill: none;"></path></g><g transform="translate(88 38)"><text x="0" y="15" font-family="Virgil" font-size="16px" fill="#000000">Spieler 1</text></g><g transform="translate(172 37.5)"><text x="0" y="15" font-family="Virgil" font-size="16px" fill="#000000">Spieler 2</text></g><g transform="translate(257.5 37.5)"><text x="0" y="15" font-family="Virgil" font-size="16px" fill="#000000">Spieler 3</text></g><g transform="translate(22.22222222222217 87.66666666666669)"><path d="M-0.3707015240125507 0.9464655901645987 C69.04209820031159 -0.8973029717386353, 140.2610886767994 -0.7247192995930779, 311.7794944850772 1.1540667617770521 M0.47928352172152244 0.5691754196130827 C89.7381045119945 -0.6837600947047411, 179.2585464089737 -0.47032757664009917, 311.7280251695471 0.3628736079378679 M311.4541470631957 -0.8671124801039696 C311.9131372151151 21.996223814412954, 312.92276670310645 41.86704454496503, 313.9139437302947 50.97780505567789 M311.53221340849996 -0.5265582986176014 C312.14519238125536 17.221200793609025, 312.11608373772356 33.018867570161824, 311.53998025134206 51.38671253249049 M312.1302903766941 51.86097500196098 C250.43546358413784 52.30784179429571, 187.98587099237807 52.78055116727745, -0.6695216576426356 50.37212313233198 M312.29750084719063 51.66079793913756 C197.41390728927138 50.708548023432684, 82.03562875592942 49.82361843224134, -0.2642620012881115 51.3302174215694 M-0.014096058905124664 50.56914059072733 C1.811391030214727 30.64201075620949, 0.3677887066826224 10.258009888976808, 1.4766301736235619 -1.584889017045498 M0.7543911524116993 50.21531806513667 C0.5608410455659032 35.184749071672556, -0.16023079376667737 21.479234246909616, 0.8659559078514576 0.5576278977096081" style="stroke: rgb(0, 0, 0); stroke-width: 1px; fill: none;"></path></g><g transform="translate(29.22222222222217 94.66666666666669)"><path d="M0.31395784951746464 -0.9406459424644709 C11.070509183686227 1.6235591831151397, 24.677564439363778 0.9830432000104339, 45.348948219791055 0.0795175340026617 M0.3307680143043399 0.5028184847906232 C9.430567973759025 0.1440570506732911, 20.485715948045254 0.3955126855056733, 45.7416876507923 0.0045913951471447945 M44.651130894199014 -0.26060611940920353 C45.03570187455043 10.903323259763422, 44.13384515410289 19.376264098286633, 46.77045086957514 39.433925261721015 M44.28737747203559 0.9979526298120618 C45.0800603700988 12.655253200232982, 45.749228037726134 27.359723456017672, 44.437611187808216 38.9296466903761 M45.43235949613154 36.42523776553571 C27.762920022476465 39.16109913191758, 11.140395603142679 37.761645313119516, 0.8836287055164576 39.64124398492277 M45.07162650953978 37.48324199486524 C29.975442674476653 38.83037646119483, 15.872143475338813 37.56466405098327, 0.8661730838939548 37.040932645089924 M1.5161031279712915 37.81409030221403 C2.288809561226517 23.5424996400252, 0.37764116475358606 6.865931179374456, -0.5526681747287512 -1.8454623315483332 M-0.4942497657611966 38.06955694127828 C-0.32112521996721627 23.81396626122296, -0.6964655326865614 9.154922707937658, -0.2412118660286069 0.46201493311673403" style="stroke: rgb(0, 0, 0); stroke-width: 1px; fill: none;"></path></g><g transform="translate(50.22222222222217 102.66666666666669)"><text x="0" y="15" font-family="Virgil" font-size="16px" fill="#000000">1</text></g><g transform="translate(100.72222222222217 93.66666666666669)"><path d="M-0.8130360916256905 1.9348211362957954 C14.069275865331294 0.07200520019978285, 29.116497185081247 -1.6165097476914525, 43.17503606528044 -0.8340928480029106 M-0.5265628062188625 0.2867810092866421 C16.090400891378525 -0.21374787595123051, 34.40792992711068 1.1070358583703637, 45.19096613302827 0.1262074075639248 M43.30321180075407 -1.6631658002734184 C46.22511518187821 10.150120780617, 44.16705954261124 25.74588569402695, 46.21913277357817 38.75811339169741 M44.29757833853364 -0.5960206426680088 C44.69177444256842 9.195146805047989, 45.893476441279056 17.84623475447297, 44.11349976435304 37.74712508544326 M44.24702774733305 39.27639151364565 C34.55725774727762 38.91805806476623, 20.975268203765154 36.83981838542968, -0.4572981670498848 39.760178335011005 M45.35570156946778 38.07045977935195 C27.13508813641965 37.64487275835127, 11.335010744631283 37.15282842870802, 0.9210164584219456 38.3854644857347 M-1.418355830013752 36.545729406178 C0.8696151470392943 24.705026929825543, -0.334116151407361 9.117994192242623, -0.6113368347287178 -1.8403491899371147 M0.16501880064606667 37.62252598628402 C0.8047050618380308 26.030420313775537, -0.8564240551739931 13.308733189851043, -0.3966156207025051 0.9673730693757534" style="stroke: rgb(0, 0, 0); stroke-width: 1px; fill: none;"></path></g><g transform="translate(181.72222222222217 94.66666666666669)"><path d="M-1.6907514072954655 1.7388184405863285 C13.965047103352846 -0.15873463833704587, 30.160056887194518 -1.4038948603905737, 43.11077501997352 1.220989141613245 M0.6635769177228212 -0.4786046016961336 C9.102694855071606 -0.8339526641182602, 19.520406618714336 -0.4789306509308517, 44.13715852983296 -0.22060643322765827 M43.614262606948614 1.0703000165522099 C45.19353251818568 7.276503743603826, 43.63930576208979 15.202834576368332, 46.599165346473455 39.31043962016702 M45.245850222185254 -0.5639248955994844 C45.40501573372632 11.085333588719369, 43.924800124652684 23.43638765104115, 45.19527907855809 38.31640107743442 M43.89162388071418 39.57634595409036 C26.811710129491985 36.906782754603775, 7.592052573338151 38.74624014729634, -0.9924652315676212 38.710806999355555 M45.80963178165257 37.73573215119541 C32.456172096543014 37.766073055099696, 21.407111901789904 37.60277307732031, -0.10511897318065166 37.80204559676349 M-1.4725591875612736 36.09545722976327 C2.112658766172826 25.675099807605147, 1.0723251375183462 10.267105819284915, 1.5305854342877865 -1.1105014942586422 M0.19409395940601826 37.10951448790729 C-0.24866520915180446 29.44279546663165, 1.1825686141476035 19.06417573429644, 0.07708986289799213 -0.7952280510216951" style="stroke: rgb(0, 0, 0); stroke-width: 1px; fill: none;"></path></g><g transform="translate(267.7222222222222 96.66666666666669)"><path d="M-1.5605468358844519 -1.156314978376031 C16.108376044314355 -1.6538570133503527, 33.49437999445945 1.1386523636523633, 46.53712282516062 -1.5441066715866327 M-0.8033287869766355 0.5161238508298993 C14.274829053785654 -1.2618222292978316, 28.438522897660736 -0.8025323506910353, 44.89940183889121 0.026165117509663105 M44.37021980620921 -0.11973447538912296 C45.30921877389774 6.834401991777122, 46.90982253318653 17.240738394856454, 45.64145247079432 37.55221771262586 M44.79267161618918 0.0515850679948926 C45.12412856472656 13.740457992255688, 44.29594172490761 27.825804801099004, 45.59732618462294 37.532257934100926 M44.85868946649134 36.79923700354993 C35.16708192275837 38.882882403349505, 22.44365408178419 39.91425667903386, -1.4840514864772558 37.35069625638425 M44.5276519311592 37.286368985660374 C28.534574982244518 39.0135651350487, 11.44972690753638 37.56030122642405, -0.48694265354424715 38.7911707656458 M-1.8655846323817968 36.36421029828489 C-0.8471756475232541 24.641770305670796, -0.5232175486348569 8.727853491157294, 0.6655548010021448 -1.0042008254677057 M0.944550390355289 38.39189284015447 C-0.9282137536071241 30.825716744735836, 0.26049279341474174 22.857735725305975, -0.08878675568848848 0.1745161609724164" style="stroke: rgb(0, 0, 0); stroke-width: 1px; fill: none;"></path></g><g transform="translate(22.22222222222217 164.16666666666669)"><path d="M0.3637652544742122 0.9068803246985181 C119.16520308081685 -0.8338944144898004, 239.73236774910438 -1.6034176127632207, 312.84064157554343 0.8314418557083353 M-0.3378830916999228 0.1892989530250795 C71.95178508098049 2.046459857454073, 143.52814044620163 1.4729504329102872, 311.3774170783712 -0.2648131448494427 M313.9195201359689 1.156483355909586 C312.58233192393556 11.339329878799617, 312.7242502255179 20.919824259355664, 312.75164711102843 49.75769645348191 M312.51524642296135 -0.5399172324687243 C311.5893163294904 16.862723625265062, 311.22571172429247 34.556866481900215, 312.0210512597114 51.16535752825439 M310.88799490635455 50.081809441539164 C218.39483226649867 49.22897075594071, 126.3179573065759 51.53749647472356, 1.3016044149756445 51.09895368934281 M311.91440386829663 50.57870734683941 C209.6710814128656 49.06638184917295, 107.47972043019989 49.18641312506099, 0.3037297657587878 51.32753334244785 M-0.9661545790731907 49.75231355801225 C1.4232752337120473 38.958611133880915, 1.55839574476704 25.473933520540594, 1.1346415244042873 -1.718975480645895 M0.5559250432997942 50.05776512436569 C-0.4180022924952209 36.739376922138035, -0.051706537585705536 24.59859911724925, 0.5443997103720903 0.7184193711727858" style="stroke: rgb(0, 0, 0); stroke-width: 1px; fill: none;"></path></g><g transform="translate(27.22222222222217 237.16666666666669)"><path d="M0.10573319877026974 -0.47317656030882294 C96.64869338691409 0.2923919144861976, 194.82035929354853 0.3480479876882354, 313.09849912089845 -0.5059511099409908 M0.5851269951739863 -0.2872711565094307 C101.13732110679543 -0.39219812926594944, 203.0951021033366 -0.5042695181855413, 311.7085272186657 -0.7033301878678158 M310.4288248196244 1.802868090569973 C310.42300494518133 12.459997772052885, 311.25580938663336 23.87026313468814, 310.5236736908555 51.252731285989285 M311.3960163407028 -0.8952179364860058 C313.1629535715654 15.059509551897646, 312.23388846326617 28.417027109861376, 311.1563063673675 51.06465919688344 M312.60448368020167 50.6662278142626 C244.81185934112798 51.238611305922056, 175.66416338128712 50.812509848893384, -1.1402341926225334 51.25004151768829 M311.80203139096494 51.548848468843715 C200.240607044437 51.529030799399976, 88.21916863527025 52.68276064146488, -0.2966088286433145 50.60028535856382 M1.9785880222916603 51.42242404073477 C-0.6898843696340918 37.112795708701015, 1.948446805216372 21.169096026569605, 1.849392093718052 0.005755864083766937 M0.8932714276015759 50.105081755667925 C-0.12055335599929096 31.328219939395783, -0.2974746044352651 11.16728295832872, 0.3553055338561535 0.9534247703850269" style="stroke: rgb(0, 0, 0); stroke-width: 1px; fill: none;"></path></g><g transform="translate(32.72222222222217 172.66666666666669)"><path d="M-1.519853150472045 -0.8314264360815287 C15.913102082442492 0.014602155843749631, 33.715894122608006 1.556720049539581, 46.8915443662554 -1.2618964854627848 M0.276418331079185 0.9892595233395696 C11.784639132674783 -0.22186870803125203, 23.37635888904333 -0.8908582769799978, 45.104500147514045 0.3266206504777074 M46.582631612196565 -0.7894476596266031 C45.91047204693779 12.64248304795474, 46.25315887888893 27.03914115726948, 46.61380490101874 37.97637707553804 M44.878802868537605 -0.30673282127827406 C44.917656541150066 10.757198755443097, 45.58207181124017 21.572546538524332, 44.64051181357354 37.14575300831348 M46.41474016942084 36.92271811328828 C27.13045718939975 37.1260690101888, 11.567695586942136 38.55423808186315, -1.491866922006011 36.091807847842574 M44.17788368742913 37.623475891537964 C28.577358209062368 38.312242477806286, 10.871794087812304 36.95910793510266, -0.8309123190119863 37.031448972411454 M-1.888212537392974 36.09260750375688 C0.4292469691671431 30.782556051947175, 0.6112854551710188 22.083594306558368, -1.4678905364125967 -0.54408317245543 M-0.6855005891993642 38.20105875749141 C-0.8515230161510408 25.38506700582802, 0.5986912804283202 12.213130620680747, 0.4043085603043437 0.37851445097476244" style="stroke: rgb(0, 0, 0); stroke-width: 1px; fill: none;"></path></g><g transform="translate(103.72222222222217 170.66666666666669)"><path d="M-0.7982845231890678 -1.9922188594937325 C15.745272299274804 -0.3864287165924907, 27.803485188633207 0.901386615820229, 44.6537182405591 0.6331900283694267 M0.858724769204855 -0.49666571244597435 C14.560078216716649 -0.5414228836074471, 29.983778923749927 -0.8972999254241585, 44.2217259965837 -0.06441890820860863 M44.98016286641359 -1.5582753494381905 C45.55990893773735 11.15603820309043, 46.49638636045158 24.91026111841202, 44.82841349393129 39.34776555746794 M44.37291103228927 -0.21156036481261253 C44.46553889118135 14.999350208044053, 43.97071364723146 30.473326119035484, 44.206916745752096 37.07823419943452 M45.010021694004536 37.75719129294157 C33.387217516079545 37.74502158146352, 21.547135811299082 37.28462219219655, -1.4044153615832329 37.46608101576567 M45.33725827559829 37.79422140493989 C34.16883579827845 38.067982780374585, 21.959821127355095 38.31460665408522, -0.8739668764173985 38.74490845575929 M-1.1977217122912407 38.77522598952055 C1.2087347472459078 29.161551446467637, 0.1749210322648287 20.530657359957694, -1.338469497859478 -1.2611311748623848 M0.47869521006941795 37.09648526087403 C0.10995346434414388 27.29430405050516, -0.27851039044559 14.475158881396055, -0.2041524089872837 -0.6409342251718044" style="stroke: rgb(0, 0, 0); stroke-width: 1px; fill: none;"></path></g><g transform="translate(184.72222222222217 171.66666666666669)"><path d="M1.4292346704751253 -1.4132214952260256 C7.9615972130559385 -0.25849611419253055, 20.908436150290072 -1.4756224240642042, 46.85154579766095 -0.03280110843479633 M-0.940509476698935 0.6670502657070756 C14.163189120125024 1.129500209679827, 29.04101853817701 0.27162268697284164, 45.47549360152334 0.5516391331329942 M45.5401096213609 -0.36846728809177876 C46.47065805254504 10.719304042123259, 43.72932355461642 23.81761728823185, 44.10168962366879 39.659824116155505 M45.09650175925344 0.23642092291265726 C45.0788789424859 14.113088439404965, 45.0514772865735 27.410586682520808, 44.13957144971937 38.25344940368086 M45.28248672373593 37.916641457006335 C30.547028298024088 36.86563031258993, 17.471773806028065 35.80639050784521, -0.7873553168028593 39.571502609178424 M44.34563972707838 37.37526580039412 C35.44994360813871 38.377139046275985, 26.962350478395816 38.6080123628024, 0.45922695752233267 37.34446656052023 M0.041436778381466866 38.19472925178707 C-0.3936831609718502 25.210571024008093, 0.7984654648788273 9.184586548060174, -1.8348150979727507 -0.35959424264729023 M0.2232557451352477 38.77807342354208 C0.3512279416806996 30.86813178099692, 0.46819922583177687 23.53899400960654, 0.5998348807916045 0.6295306915417314" style="stroke: rgb(0, 0, 0); stroke-width: 1px; fill: none;"></path></g><g transform="translate(269.7222222222222 169.66666666666669)"><path d="M-0.31509479507803917 -1.9408532120287418 C11.458471062593162 0.44529566997662184, 20.464126916602254 0.7232565664686262, 46.146823678165674 -1.6742312647402287 M-0.7529356349259615 -0.9560335110872984 C10.96728068497032 0.8893089267425239, 22.51417051255703 -0.2244382527656853, 44.50227971188724 0.5439725089818239 M44.270090851932764 -1.444486353546381 C45.960901682935656 11.70151276998222, 45.86785632904619 24.07776320576668, 45.47423115745187 37.61220135912299 M44.79615302197635 0.10252382047474384 C46.24242115151137 12.02561206519604, 45.08425194155425 24.52611005418003, 45.75676502101123 37.80432923324406 M44.36272660270333 36.175839092582464 C29.934957389719784 37.26906225299463, 12.359639501199126 38.71252760505304, -1.1365899704396725 37.665536906570196 M45.88115896098316 38.42420561797917 C34.28234711010009 37.5121853296645, 21.80744997784495 38.841503793466835, -0.5669070947915316 38.82762731797993 M1.5005321837961674 38.189044024795294 C1.0750092217698692 23.146244693174957, 1.3995892951264977 14.037554095685483, -0.6440137289464474 0.8132900260388851 M-0.8771292436867952 38.09427799470723 C1.2457564720883965 29.77255379036069, 0.7699488649144769 21.850138744339347, 0.9938488136976957 0.076086001470685" style="stroke: rgb(0, 0, 0); stroke-width: 1px; fill: none;"></path></g><g transform="translate(34.72222222222217 242.66666666666669)"><path d="M-1.1437416654080153 -1.5539309103041887 C12.865238775964826 1.761478415923193, 29.69569329265505 0.5471907176543027, 46.48579001612961 0.5698685925453901 M-0.9059054115787148 -0.9601223161444068 C13.721046600025149 -0.7450060988310725, 26.97368430346251 -0.22739939340390264, 45.796223565004766 0.5077063450589776 M45.5560638923198 1.7601461689919233 C44.9209613792412 8.458015069924295, 46.4982985846512 17.57559031546116, 45.81535822339356 36.156801430508494 M45.214078112505376 -0.23543125297874212 C44.41467968484387 8.780352126061917, 45.52724713942036 18.951470931433143, 45.91948677506298 38.54611906502396 M43.35577064938843 37.40501662902534 C32.34745471039787 40.051214028848335, 20.30184819828719 39.31430136109702, 0.2109531182795763 36.91797247342765 M44.918800367973745 38.41256246063858 C29.041691625956446 37.48155266777612, 11.343674337491393 37.27948430911638, -0.1763748088851571 38.211600304581225 M1.5296095628291368 37.78320732526481 C-0.5776986637525261 27.71184056866914, -0.7374410787038506 12.784179180115462, 0.6831337828189135 -0.44916954822838306 M-0.5426236549392343 37.01355242822319 C-0.5170550676994026 31.04297049380839, -0.014432910364121199 23.2573260365054, -0.6885352591052651 -0.2854922702535987" style="stroke: rgb(0, 0, 0); stroke-width: 1px; fill: none;"></path></g><g transform="translate(104.72222222222217 244.66666666666669)"><path d="M-1.8768761083483696 1.3133739158511162 C17.80051918886602 1.7677570255473256, 30.233537349849943 0.5351484687998891, 44.12944031506777 1.2134486362338066 M0.28577881678938866 0.8292652405798435 C9.315447224304082 0.6645879885181785, 19.76143261790276 -0.2640238860622049, 44.0315963588655 0.18783879652619362 M44.67201042920351 -0.3845719173550606 C45.47939322166145 8.298727741092444, 43.733047463223336 14.675501215457917, 43.51085401326418 39.4340742751956 M44.25391786918044 -0.1305367909371853 C45.524733248576524 11.553982204198837, 45.279461685046556 23.829081185907125, 45.254553373903036 37.54591167345643 M43.64491582661867 38.73186670988798 C28.27720063365996 39.01284330468625, 10.542549710720778 36.855750495009126, 1.8370385244488716 37.68661367148161 M45.0097423158586 38.27132881060243 C29.623810390010476 38.53785076681525, 15.211568497121338 37.88190582338721, 0.4716166816651821 37.40884066000581 M0.5450139120221138 38.36654721945524 C1.6270488298684358 27.720072788745163, -1.202381035014987 12.350568267703057, -1.4435198232531548 -0.14538825303316116 M-0.9034128822386265 37.35676145926118 C0.4676209557801485 23.049312891066073, -0.1344239842146635 8.607102512568236, -0.059035006910562515 0.32118142023682594" style="stroke: rgb(0, 0, 0); stroke-width: 1px; fill: none;"></path></g><g transform="translate(184.72222222222217 243.66666666666669)"><path d="M-1.7230258416384459 -0.18040172941982746 C15.799686701502651 -0.6629978674929589, 33.68539248500019 0.7048300844151527, 45.16532398946583 0.35429550521075726 M0.8238787120208144 -0.5506920432671905 C8.990626513492316 0.8900579826440662, 18.952119760215282 0.3385421351995319, 44.83815363701433 -0.48578768130391836 M43.6842634845525 0.08266283385455608 C42.92348234442994 13.79041441883892, 44.14194761304185 27.790171542763712, 45.05395372398198 38.40021033398807 M45.83724788483232 0.7926487410441041 C45.21426936810836 8.57957095950842, 44.867772577460855 17.483750296197833, 45.37273920234293 38.494036295451224 M43.515077667310834 39.31407876126468 C33.078805240336806 36.39709948408417, 20.589144217781723 38.22731833565049, 1.7174877095967531 38.849229944869876 M45.81199610885233 37.86417041067034 C28.217888636980206 38.44814096116461, 11.7429284658283 39.07091672443785, -0.9441929096356034 38.86405897978693 M1.643745319917798 39.2303377520293 C1.9365779720433056 23.701297116465867, -1.6134389675967395 9.667753230780363, -0.34279231540858746 1.0721429120749235 M-0.46296670380979776 38.13424039725214 C0.17114932822063567 24.112895828858015, -0.08184732509776949 9.631476835720239, -0.8403343493118882 0.2206243658438325" style="stroke: rgb(0, 0, 0); stroke-width: 1px; fill: none;"></path></g><g transform="translate(270.7222222222222 244.66666666666669)"><path d="M1.872748427093029 -0.5606757923960686 C16.401070857420564 0.2057999415323138, 31.954837318509817 0.2888971609994769, 46.57622700184584 -1.9463938996195793 M-0.29984017834067345 0.4147513173520565 C17.606000693514943 -0.40792142506688833, 33.88028410077095 -0.5301794921979308, 45.07080403342843 -0.21850237622857094 M45.19703274220228 -1.0325011536478996 C45.25704329498112 14.017539314180613, 44.75815551765263 26.158468759059907, 46.44084792584181 37.17022830992937 M44.924143228679895 0.3177916072309017 C44.83855612613261 8.219565683603287, 44.77616186477244 16.158597908169032, 45.48195556178689 38.476923014968634 M43.633736185729504 39.0794213488698 C34.26908131502569 37.2579782711342, 21.118835318833586 37.30083806384355, -0.03841084986925125 39.86986596137285 M45.45892146602273 38.59808638319373 C31.053204929456115 38.6889390071854, 16.519104756414887 39.16992953624576, -0.23787054046988487 37.75114097818732 M-1.333986945450306 37.11615616828203 C-0.39674372263252733 29.3815811984241, -1.3536850888282062 20.02549286186695, 1.988792471587658 1.001396007835865 M-0.31012948974967003 37.739400293678045 C0.5691746871918439 29.63679327815771, 0.8499429624527692 22.267489332705736, 0.42560795322060585 0.521509911864996" style="stroke: rgb(0, 0, 0); stroke-width: 1px; fill: none;"></path></g><g transform="translate(49.22222222222217 180.66666666666669)"><text x="0" y="15" font-family="Virgil" font-size="16px" fill="#000000">2</text></g><g transform="translate(50.22222222222217 253.66666666666669)"><text x="0" y="15" font-family="Virgil" font-size="16px" fill="#000000">3</text></g><g transform="translate(22.72222222222217 29.666666666666686)"><path d="M1.0602705143392086 0.31799766793847084 C8.903553744778037 0.5185047490522265, 20.684058502316475 2.146896849386394, 49.12288435921073 0.7509034611284733 M0.7636037338525057 -0.08416320569813251 C11.510328076779842 -1.1709880018606782, 24.924824712798 0.031605384312570095, 49.00530801899731 -0.7766149807721376 M49.165785398334265 -0.3730370067059994 C50.962818916141984 13.645157258957624, 48.89652055054903 23.42980431392789, 49.440645184367895 39.383694622665644 M49.42498146183789 -0.7198556233197451 C49.81754586063325 7.704450046643615, 49.79314938150346 16.70826735906303, 49.406906770542264 40.796720845624804 M49.633357014507055 41.776447270065546 C31.326477559283376 38.15059339720756, 13.266145803034306 39.95112752635032, -0.03151479735970497 38.74921664968133 M50.87447755225003 39.90592466108501 C37.29707331582904 40.05630833376199, 22.437856411561366 39.90677845943719, -0.3342232834547758 40.707884354516864 M0.23385938629508018 40.62643584981561 C-1.2786315709352494 25.976500298827887, -0.6822330981492997 13.584472615271807, -0.6516278125345707 1.2738611437380314 M0.7432565558701754 39.73720840923488 C0.7222881358116865 30.072065284475684, -0.7531467039138079 22.25437813811004, 0.3837855327874422 -0.28854681737720966" style="stroke: rgb(0, 0, 0); stroke-width: 1px; fill: none;"></path></g><g transform="translate(26.22222222222217 38.666666666666686)"><text x="0" y="15" font-family="Virgil" font-size="16px" fill="#000000">Runde</text></g><g transform="translate(190.22222222222217 102.66666666666669)"><text x="0" y="15" font-family="Virgil" font-size="16px" fill="#000000">100</text></g><g transform="translate(105.22222222222217 101.66666666666669)"><text x="0" y="15" font-family="Virgil" font-size="16px" fill="#000000">200</text></g><g transform="translate(273.2222222222222 104.66666666666669)"><text x="0" y="15" font-family="Virgil" font-size="16px" fill="#000000">-100</text></g><g transform="translate(106.22222222222217 178.66666666666669)"><text x="0" y="15" font-family="Virgil" font-size="16px" fill="#000000">200</text></g><g transform="translate(274.2222222222222 253.66666666666669)"><text x="0" y="15" font-family="Virgil" font-size="16px" fill="#000000">200</text></g><g transform="translate(113.22222222222217 256.6666666666667)"><text x="0" y="15" font-family="Virgil" font-size="16px" fill="#000000">100</text></g><g transform="translate(193.22222222222217 254.66666666666669)"><text x="0" y="15" font-family="Virgil" font-size="16px" fill="#000000">100</text></g><g transform="translate(278.2222222222222 178.66666666666669)"><text x="0" y="15" font-family="Virgil" font-size="16px" fill="#000000">100</text></g><g transform="translate(188.22222222222217 179.66666666666669)"><text x="0" y="15" font-family="Virgil" font-size="16px" fill="#000000">-100</text></g><g transform="translate(189.22222222222217 580.6666666666667)"><path d="M-1.2082055862993002 -1.2918562535196543 C48.348017598968 -0.9768285515066235, 96.8113395543769 -2.736204302525148, 147.90199964679778 -1.5750494245439768 M-0.15883989352732897 0.6394995423033834 C34.96215391745791 -1.8189592493791131, 72.10089656114579 -0.6591090394277124, 148.8708863435313 -0.4453114001080394 M147.53750675357878 -0.011497998610138893 C150.24715487522073 12.676844767387957, 150.8703545169253 28.977711565978826, 147.3740856591612 40.48885337077081 M148.4962823567912 -0.954355332069099 C149.40198275885544 8.887917835172265, 148.18786800346336 17.458734283968806, 148.3982801316306 41.380233940668404 M147.45708727277815 39.05974427424371 C102.15486695067958 41.14362392074428, 50.597758094035086 41.934911164110524, -0.653727238997817 40.93244633637369 M149.37768768053502 40.36202710587531 C111.28800965519622 39.553089305059984, 73.70625380240381 39.85810972680338, 0.5918678818270564 41.05452367383987 M0.4680774752050638 39.56780562363565 C-1.7412504222709686 27.233581663761285, 1.499071869580075 16.890665916167197, -0.5353819187730551 0.5793989058583975 M-0.1164610804989934 41.307183233089745 C-0.09501455365680161 28.23725811811164, -0.5816493743564934 15.250429507344961, 0.21992962341755629 0.22285198885947466" style="stroke: rgb(0, 0, 0); stroke-width: 1px; fill: none;"></path></g><g transform="translate(197.22222222222217 589.6666666666667)"><text x="0" y="15" font-family="Virgil" font-size="16px" fill="#000000">Spieler hinzufügen</text></g><g transform="translate(25.72222222222217 579.1666666666667)"><path d="M-0.8333435337990522 1.674279985949397 C58.74259888222442 1.3486622149962932, 120.3197333911434 -0.24378309893421835, 149.24519041366875 -0.41354179568588734 M0.4700050940737128 -0.384103967808187 C59.951024257671094 0.9930642664339393, 117.79282127618791 0.8489425897505134, 149.82805743720382 -0.8394487341865897 M148.8253443557769 1.1973977070301771 C148.67123079926708 18.106250691693276, 150.74850601584652 34.53585372213274, 150.86472615785897 41.19636601023376 M149.5220388462767 -0.6628513773903251 C148.29964326846414 10.397041407506913, 148.69945027458482 19.28757784627378, 148.30059194471687 41.87376342806965 M149.4919229466468 42.61255758814514 C112.49423573696986 40.98432255241089, 77.46124159675091 38.212330882279204, -1.8024640958756208 42.25562798790634 M148.6645333757624 41.69058142695576 C115.13745909193531 39.19503874310292, 83.09781061224639 39.135776914441955, -0.6927177021279931 40.82380057964474 M-1.1404314916580915 39.231466172263026 C-0.5355525000486523 27.859866382647304, -1.5374589546117932 9.75450003724545, -0.5456259530037642 -1.9103774446994066 M-0.13318148348480463 40.19661070499569 C-0.359836150361225 29.048775182757524, 0.5234398651588708 15.016068177670238, -0.26945573184639215 -0.8976319571956992" style="stroke: rgb(0, 0, 0); stroke-width: 1px; fill: none;"></path></g><g transform="translate(33.72222222222217 589.6666666666667)"><text x="0" y="15" font-family="Virgil" font-size="16px" fill="#000000">Runde hinzufügen</text></g><g transform="translate(24.22222222222217 300.6666666666667)"></g><g transform="translate(26.22222222222217 333.1666666666667)"><path d="M0.6346316011644795 -0.17997538940746335 C106.82414751093359 0.11180722562610179, 213.21158584457507 0.9763069093532231, 311.9877742392539 0.4564102249086663 M-0.1697917869003631 -0.2896694674280427 C75.47706950082168 1.2698174581341162, 152.78018521653675 1.2148559613110674, 311.4463014314126 -0.5173762804801962 M312.7118764035404 -1.0141247026622295 C311.556864378769 10.35947879459709, 312.3674147108384 24.324562546983362, 310.15097368881106 52.65093259885907 M311.98538639582694 0.5867129620164633 C311.3244634773396 15.419467948190869, 311.70966129561884 31.030426898598673, 312.6753426436335 50.46475083194673 M310.7556676792209 50.760962872564484 C187.24952626059587 48.47699604412515, 62.807109658128375 49.83675483312876, -0.6287189490562484 51.272645305835084 M312.68540056484517 50.6159840423918 C236.3194121245359 49.472407037685706, 160.21104336842075 49.017135541032026, 0.11785113877800925 50.572137553285266 M-0.8027455694973469 49.66861479356885 C0.22196827350184323 41.15324504617602, -0.06378724159672855 29.010849694535136, -0.01975332573056221 -1.512786339968443 M-0.0824426170438528 51.4124326761812 C0.8563357465900481 34.85219209287315, -0.003099156077951193 19.029017778486015, -0.2552907820791006 0.8586582597345114" style="stroke: rgb(0, 0, 0); stroke-width: 1px; fill: none;"></path></g><g transform="translate(36.72222222222217 339.6666666666667)"><path d="M0.6283738054335117 0.23196208104491234 C15.32314034830779 -0.13083524396643043, 28.756375061348084 -0.010618755128234625, 44.16345531120896 -0.8486726321280003 M0.9429409485310316 0.7025265414267778 C17.036273947916925 0.15334312273189427, 34.805386289954185 -0.803750175703317, 45.19959205202758 0.5079434234648943 M45.39657813683152 -0.7767570056021214 C46.0261404755339 13.984296668693423, 46.812473440431056 30.0234227001667, 45.56600183621049 39.4746357165277 M45.25964349322021 -0.7489387672394514 C45.05327273350209 8.367075321078302, 44.804268429093064 16.547574959322812, 44.26073849014938 37.10765800066292 M46.32485098019242 37.881664868444204 C32.42778967041522 37.41987891932949, 18.243073483929034 39.61215503951534, 1.4378209747374058 39.05627154931426 M45.05426466278732 37.409537406638265 C32.89125270117074 37.629944710154085, 21.25887848064303 38.537151185888796, -0.19952506013214588 38.72582236118615 M1.7604823745787144 38.24470328912139 C0.1326882553473115 24.109171679988503, -0.115806965790689 12.94580422490835, 0.9113590158522129 0.21105420216917992 M0.8474953752011061 37.449256332591176 C-0.9386557209119201 26.8580369181931, -0.38014583464711904 15.673710280284286, 0.29066419415175915 0.6513158995658159" style="stroke: rgb(0, 0, 0); stroke-width: 1px; fill: none;"></path></g><g transform="translate(37.22222222222217 348.6666666666667)"><text x="0" y="15" font-family="Virgil" font-size="16px" fill="#000000">Total</text></g><g transform="translate(105.72222222222217 339.6666666666667)"><path d="M0.40285204350948334 -1.9290077537298203 C10.767276246100664 1.6960964020341636, 19.361177377402782 0.132947426661849, 45.79587410390377 1.6388695389032364 M-0.21962820738554 0.32680129259824753 C16.736097905784845 -1.164633409306407, 35.20367246866226 0.1334091264754534, 44.59311140328646 -0.9194519594311714 M44.613443836569786 0.5474350601434708 C46.170401688963175 9.384473104774953, 46.10771906033158 15.742278361320498, 43.06650923192501 38.46713425219059 M44.502777464687824 0.5709979459643364 C45.748007329255344 14.095415031909942, 44.42358616188169 26.332470972836017, 44.78317607194185 37.692168705165386 M44.322189316153526 39.400480046868324 C27.03229070827365 39.88281734026968, 12.24823621660471 39.62273843325674, -1.9405808597803116 36.221317544579506 M44.22281039506197 38.280580036342144 C28.635746877640486 37.97899808995426, 13.180160716176033 38.27809348218143, 0.3002137020230293 37.61561035364866 M1.163365826010704 38.83178736269474 C-0.718884661346674 28.888203965127467, 1.6336243604123593 22.76714559197426, 1.0182561725378036 0.24370457231998444 M0.9084881618618965 37.63206123560667 C-0.5224771858751773 27.012036010622978, 0.3436991809308529 15.070958234369755, 0.43255437165498734 -0.16792584210634232" style="stroke: rgb(0, 0, 0); stroke-width: 1px; fill: none;"></path></g><g transform="translate(185.72222222222217 340.6666666666667)"><path d="M-1.900777917355299 -0.45084865763783455 C14.867623350583019 -1.0602972249500453, 25.931331777945164 -0.48849830431863667, 44.670677203685045 -0.7407009191811085 M-0.7850189004093409 0.3526583407074213 C16.329107257537544 0.15989450132474303, 33.53090088069439 -0.4336078413762152, 45.262630423530936 -0.5668257381767035 M46.0505399890244 -1.3841898031532764 C44.997236411087215 13.600893449410796, 45.11867670249194 29.91341124176979, 45.60956301167607 38.21613661572337 M44.36921544931829 -0.6010459568351507 C45.551613089703025 13.970770940184593, 45.515094337128104 26.722162803635, 44.10078467987478 37.97728223539889 M45.7181550450623 36.06218020245433 C33.74202044401318 37.54513545287773, 24.25479651801288 36.86822374118492, 1.566625852137804 36.5965085439384 M45.164538284763694 38.42754382826388 C31.32430411223322 37.56891356864944, 18.46517002210021 37.62582855382934, 0.09607966803014278 37.86165548302233 M-0.1399981789290905 36.14790491387248 C1.605462956018746 26.793361293151975, 0.9566929813101888 14.72499244660139, 1.1630815453827381 -0.8907228298485279 M-0.5407129917293787 37.24317623116076 C-0.5094836823269725 26.285129151493308, 0.0933141239359975 14.693302546069024, -0.6060378346592188 -0.05231683515012264" style="stroke: rgb(0, 0, 0); stroke-width: 1px; fill: none;"></path></g><g transform="translate(272.7222222222222 338.6666666666667)"><path d="M0.6073067355901003 -0.6965663302689791 C10.94342710217461 0.6203446325380355, 23.785912291146815 -1.0626143875997514, 44.8775401879102 0.7424106132239103 M0.4148726826533675 0.3192643607035279 C14.741055115591735 -0.5686574338469654, 30.28590267151594 -0.940864389995113, 45.42172325309366 -0.9968499159440398 M45.16849811561406 1.5725388061255217 C45.24759148566052 7.535112508200109, 43.77395432202145 17.414874854683877, 44.6864904332906 36.57970537059009 M45.51832879241556 0.2491386914625764 C45.34533844595775 13.541599224507808, 44.592100513037295 27.21343235429376, 44.36191699560732 37.09529496077448 M46.091019527986646 38.603635443374515 C25.162755178753287 39.23978416281752, 10.328380065970123 37.58379123765044, 0.7413532305508852 39.86179192177951 M45.23877308424562 37.81554962042719 C35.14055114844814 37.995767541462556, 24.177193066105247 37.36224428587593, 0.8864756291732192 37.065095820464194 M-0.04572228901088238 38.93938715569675 C0.8089897363074123 29.986690861172974, 0.0901857941038906 20.088268171995878, 0.5609884429723024 -0.5268692839890718 M-0.3155485922470689 38.153903641738 C-1.0293779982440174 28.108849066868423, -0.9380781961791218 16.805288670770825, -0.06920655909925699 -0.6698142802342772" style="stroke: rgb(0, 0, 0); stroke-width: 1px; fill: none;"></path></g><g transform="translate(109.72222222222217 347.6666666666667)"><text x="0" y="15" font-family="Virgil" font-size="16px" fill="#000000">500</text></g><g transform="translate(194.22222222222217 348.6666666666667)"><text x="0" y="15" font-family="Virgil" font-size="16px" fill="#000000">100</text></g><g transform="translate(277.2222222222222 346.6666666666667)"><text x="0" y="15" font-family="Virgil" font-size="16px" fill="#000000">200</text></g><g transform="translate(24.22222222222217 309.6666666666667)"></g><g transform="translate(92.22222222222217 536.6666666666667)"></g><g transform="translate(98.22222222222217 397.6666666666667)"></g><g transform="translate(111.22222222222217 468.6666666666667)"><path d="M0 0 C9.874091920629144 0, 19.74818384125829 0, 38 0 M0 0 C12.571585234627127 0, 25.143170469254255 0, 38 0 M38 0 C38 15.575755944661797, 38 31.151511889323594, 38 69 M38 0 C38 13.909283375926316, 38 27.818566751852632, 38 69 M38 69 C24.430387368425727 69, 10.860774736851454 69, 0 69 M38 69 C28.344660345092414 69, 18.689320690184832 69, 0 69 M0 69 C0 48.929298016615206, 0 28.85859603323042, 0 0 M0 69 C0 54.63938256483525, 0 40.278765129670504, 0 0" style="stroke: rgb(0, 0, 0); stroke-width: 1px; fill: none;"></path></g><g transform="translate(188.22222222222217 521.6666666666667)"><path d="M0 0 C17.066789220646026 0, 34.13357844129205 0, 44 0 M0 0 C9.575939435884358 0, 19.151878871768716 0, 44 0 M44 0 C44 5.527307817153633, 44 11.054615634307266, 44 18 M44 0 C44 5.9232782067731025, 44 11.846556413546205, 44 18 M44 18 C32.978908921405676 18, 21.957817842811345 18, 0 18 M44 18 C31.296171336248516 18, 18.592342672497033 18, 0 18 M0 18 C0 11.20130075532943, 0 4.40260151065886, 0 0 M0 18 C0 11.272395866923034, 0 4.544791733846068, 0 0" style="stroke: rgb(0, 0, 0); stroke-width: 1px; fill: none;"></path></g><g transform="translate(273.2222222222222 512.6666666666667)"><path d="M0 0 C11.226299031078817 0, 22.452598062157634 0, 42 0 M0 0 C10.2624212667346 0, 20.5248425334692 0, 42 0 M42 0 C42 8.018194147199393, 42 16.036388294398787, 42 27 M42 0 C42 7.84981199875474, 42 15.69962399750948, 42 27 M42 27 C29.577124182879924 27, 17.154248365759848 27, 0 27 M42 27 C30.13999810963869 27, 18.27999621927738 27, 0 27 M0 27 C0 16.76992197409272, 0 6.5398439481854425, 0 0 M0 27 C0 19.558576854318382, 0 12.11715370863676, 0 0" style="stroke: rgb(0, 0, 0); stroke-width: 1px; fill: none;"></path></g><g transform="translate(105.22222222222217 404.6666666666667)"></g><g transform="translate(41.72222222222217 394.6666666666667)"><text x="0" y="15" font-family="Virgil" font-size="16px" fill="#000000">1.000</text></g><g transform="translate(74.22222222222217 526.6666666666667)"><text x="0" y="15" font-family="Virgil" font-size="16px" fill="#000000">0</text></g></svg>