<svg version="1.1" xmlns="http://www.w3.org/2000/svg" viewBox="0 0 715.4545454545453 533.6363636363635" width="715.4545454545453" height="533.6363636363635">
  <!-- svg-source:excalidraw -->
  
  <defs>
    <style>
      @font-face {
        font-family: "Virgil";
        src: url("https://excalidraw.com/Virgil.woff2");
      }
      @font-face {
        font-family: "Cascadia";
        src: url("https://excalidraw.com/Cascadia.woff2");
      }
    </style>
  </defs>
  <rect x="0" y="0" width="715.4545454545453" height="533.6363636363635" fill="#ffffff"></rect><g stroke-linecap="round" transform="translate(10 10) rotate(0 347.72727272727263 256.81818181818176)"><path d="M0.77 -0.19 C244.19 -0.21, 487.06 -0.68, 695.44 -0.2 M0.24 0.24 C217.19 2.25, 434.87 2.35, 695.38 -0.05 M695.19 0.49 C695.47 186.47, 694.1 371.79, 695.11 514.22 M695.11 0.26 C696.67 202.31, 695.94 404.17, 695.35 513.36 M695.32 514.26 C554.29 515.48, 412.15 514.75, 0.05 513.01 M695.79 513.8 C522.22 514.68, 348.88 515, -0.38 513.82 M-0.43 513.04 C0.69 409.74, 1 306.21, -0.32 -0.18 M-0.31 513.25 C-0.07 407.63, -0.34 302.27, 0.28 0.17" stroke="#000000" stroke-width="1" fill="none"></path></g><g transform="translate(163.63636363636368 49.590909090909065) rotate(0 20 13)"><text x="0" y="18" font-family="Virgil, Segoe UI Emoji" font-size="20px" fill="#000000" text-anchor="start" style="white-space: pre;" direction="ltr">Max</text></g><g transform="translate(298.1818181818181 51) rotate(0 25.5 13)"><text x="0" y="18" font-family="Virgil, Segoe UI Emoji" font-size="20px" fill="#000000" text-anchor="start" style="white-space: pre;" direction="ltr">Adolf</text></g><g transform="translate(440.9090909090908 49.18181818181819) rotate(0 23.5 13)"><text x="0" y="18" font-family="Virgil, Segoe UI Emoji" font-size="20px" fill="#000000" text-anchor="start" style="white-space: pre;" direction="ltr">Fritz</text></g><g transform="translate(46.36363636363643 129.1818181818182) rotate(0 36 13)"><text x="0" y="18" font-family="Virgil, Segoe UI Emoji" font-size="20px" fill="#000000" text-anchor="start" style="white-space: pre;" direction="ltr">Round 1</text></g><g transform="translate(50.00000000000006 186.45454545454544) rotate(0 40.5 13)"><text x="0" y="18" font-family="Virgil, Segoe UI Emoji" font-size="20px" fill="#000000" text-anchor="start" style="white-space: pre;" direction="ltr">Round 2</text></g><g transform="translate(50.909090909090935 233.72727272727275) rotate(0 8 13)"><text x="0" y="18" font-family="Virgil, Segoe UI Emoji" font-size="20px" fill="#000000" text-anchor="start" style="white-space: pre;" direction="ltr">...</text></g><g transform="translate(46.36363636363643 282.8181818181818) rotate(0 38 13)"><text x="0" y="18" font-family="Virgil, Segoe UI Emoji" font-size="20px" fill="#000000" text-anchor="start" style="white-space: pre;" direction="ltr">Round n</text></g><g stroke-linecap="round"><g transform="translate(29.09090909090918 107.27272727272731) rotate(0 314.49396805478756 -4.738973120545381)"><path d="M-1.08 -0.45 C103.91 -1.73, 524.89 -6.08, 630.07 -7.03 M0.55 -1.73 C105.45 -3.46, 524.78 -7.99, 629.64 -9.03" stroke="#000000" stroke-width="1" fill="none"></path></g></g><g stroke-linecap="round"><g transform="translate(30.909090909090935 173.63636363636368) rotate(0 314.41623156164815 -4.184288922046676)"><path d="M0.66 0.56 C105.5 -0.59, 524.66 -5.8, 629.28 -6.97 M-0.45 -0.19 C104.23 -1.71, 523.21 -7.57, 628.43 -8.93" stroke="#000000" stroke-width="1" fill="none"></path></g></g><g stroke-linecap="round"><g transform="translate(30.909090909090935 229.09090909090912) rotate(0 314.45620684339235 -3.7121898774396414)"><path d="M-0.79 0.72 C104.33 -0.47, 524.9 -6.8, 629.71 -8.14 M0.99 0.05 C106.1 -0.92, 524.18 -6.04, 629.08 -7.06" stroke="#000000" stroke-width="1" fill="none"></path></g></g><g stroke-linecap="round"><g transform="translate(27.272727272727195 322.7272727272728) rotate(0 314.28252685771355 -3.018778576610032)"><path d="M-0.04 -0.76 C104.81 -2.1, 525.14 -6.25, 630.09 -7.49 M-1.52 1.45 C103.17 0.25, 524.54 -4.6, 629.66 -6.07" stroke="#000000" stroke-width="1" fill="none"></path></g></g><g transform="translate(45.45454545454544 340.99999999999994) rotate(0 18 13)"><text x="0" y="18" font-family="Virgil, Segoe UI Emoji" font-size="20px" fill="#000000" text-anchor="start" style="white-space: pre;" direction="ltr">Sum</text></g><g stroke-linecap="round"><g transform="translate(264.54545454545456 48.18181818181819) rotate(0 1.335125475985592 172.58045836619402)"><path d="M0.09 1.16 C0.49 58.53, 1.44 287.31, 1.77 344.44 M-1.32 0.72 C-0.5 57.74, 3.6 285.3, 3.99 342.73" stroke="#000000" stroke-width="1" fill="none"></path></g></g><g stroke-linecap="round"><g transform="translate(400.00000000000006 44.54545454545459) rotate(0 1.4190348025072694 171.05460764587687)"><path d="M-0.46 -0.27 C0.08 56.67, 2.78 285.37, 3.3 342.58 M1.5 -1.46 C1.93 55.51, 2.59 285.99, 2.65 343.57" stroke="#000000" stroke-width="1" fill="none"></path></g></g><g stroke-linecap="round"><g transform="translate(144.54545454545467 41.81818181818184) rotate(0 1.3692945148457625 171.339133436911)"><path d="M-0.79 0.09 C-0.22 57.05, 2.95 285.3, 3.53 342.6 M0.99 -0.91 C1.47 56.09, 2.85 285.89, 3.01 343.59" stroke="#000000" stroke-width="1" fill="none"></path></g></g><g stroke-linecap="round"><g transform="translate(508.1818181818181 43.636363636363626) rotate(0 -2.161136694632603 177.41330835425086)"><path d="M-1.03 -0.81 C-1.71 58.39, -3.48 294.83, -3.88 354.25 M0.63 1.38 C-0.25 60.84, -4.17 296.87, -4.95 355.64" stroke="#000000" stroke-width="1" fill="none"></path></g></g><g transform="translate(177.2727272727273 127.36363636363637) rotate(0 20.5 13)"><text x="0" y="18" font-family="Virgil, Segoe UI Emoji" font-size="20px" fill="#000000" text-anchor="start" style="white-space: pre;" direction="ltr">300</text></g><g transform="translate(183.63636363636368 185.54545454545456) rotate(0 20.5 13)"><text x="0" y="18" font-family="Virgil, Segoe UI Emoji" font-size="20px" fill="#000000" text-anchor="start" style="white-space: pre;" direction="ltr">300</text></g><g transform="translate(304.54545454545456 124.63636363636368) rotate(0 20.5 13)"><text x="0" y="18" font-family="Virgil, Segoe UI Emoji" font-size="20px" fill="#000000" text-anchor="start" style="white-space: pre;" direction="ltr">300</text></g><g transform="translate(427.2727272727272 122.81818181818187) rotate(0 20.5 13)"><text x="0" y="18" font-family="Virgil, Segoe UI Emoji" font-size="20px" fill="#000000" text-anchor="start" style="white-space: pre;" direction="ltr">300</text></g><g transform="translate(523.6363636363635 120.99999999999994) rotate(0 69.5 13)"><text x="0" y="18" font-family="Virgil, Segoe UI Emoji" font-size="20px" fill="#000000" text-anchor="start" style="white-space: pre;" direction="ltr">wird berechnet</text></g><g transform="translate(534.5454545454543 49.18181818181819) rotate(0 31.5 13)"><text x="0" y="18" font-family="Virgil, Segoe UI Emoji" font-size="20px" fill="#000000" text-anchor="start" style="white-space: pre;" direction="ltr">Hinweis</text></g><g transform="translate(176.36363636363643 345.54545454545456) rotate(0 20 13)"><text x="0" y="18" font-family="Virgil, Segoe UI Emoji" font-size="20px" fill="#000000" text-anchor="start" style="white-space: pre;" direction="ltr">600</text></g></svg>